<svg width="70" height="70" viewBox="0 0 70 70" fill="none" xmlns="http://www.w3.org/2000/svg">
<rect x="2.5" y="2.5" width="65" height="65" stroke="#FF9781" stroke-width="5"/>
<path d="M35 15C23.9544 15 15 23.9544 15 35C15 46.0456 23.9544 55 35 55C46.0456 55 55 46.0456 55 35C54.9876 23.9596 46.0404 15.0124 35 15ZM52.8398 29.5039C50.5817 28.9746 48.2607 28.7633 45.944 28.8766C46.1081 26.4115 46.9668 24.0433 48.4212 22.0459C50.4587 24.151 51.9723 26.7057 52.8398 29.5039ZM47.4521 21.1081C45.7679 23.3903 44.7878 26.1149 44.6322 28.9466C42.4922 29.1107 40.3665 29.4281 38.2721 29.8962C37.5254 25.0856 35.748 20.4935 33.0618 16.4339C33.7057 16.3672 34.3525 16.3337 35 16.3333C39.5983 16.3304 44.0345 18.0312 47.4521 21.1081ZM33.432 53.596C30.4661 53.3493 27.6035 52.3923 25.0859 50.8053C30.2601 44.0426 32.6501 38.0667 32.1999 33.0133C33.8213 32.474 35.4814 31.9827 37.1501 31.5641C37.8385 37.5452 37.1094 44.9121 33.432 53.596ZM31.9948 31.624C31.9479 31.3913 31.9053 31.1572 31.846 30.9287C30.5075 25.7806 26.194 22.7721 22.5553 21.1019C25.1022 18.8151 28.2305 17.2747 31.596 16.6501C34.3936 20.6992 36.2301 25.3337 36.9661 30.1999C35.4141 30.5768 33.7607 31.0446 31.9948 31.624ZM21.528 22.1025C24.9873 23.6038 29.2926 26.3962 30.5586 31.264C30.6253 31.5234 30.6781 31.7894 30.7272 32.0553C25.8828 33.7777 21.1702 35.8512 16.6273 38.2594C15.5785 32.3997 17.4007 26.3923 21.528 22.1025ZM16.9108 39.6107C21.4212 37.2341 26.0944 35.1787 30.8945 33.4606C31.1826 38.1208 28.8659 43.6895 23.9821 50.0553C20.4876 47.4967 17.9883 43.8053 16.9108 39.6107ZM35 53.6667C34.9479 53.6667 34.8968 53.6634 34.8447 53.6628C38.4919 44.8525 39.1914 37.3548 38.4619 31.2513C40.5003 30.7803 42.57 30.4557 44.6546 30.2799C44.9085 33.9466 46.8047 38.2308 51.946 42.8135C48.8936 49.4232 42.2806 53.6585 35 53.6667ZM52.4935 41.5101C47.9795 37.3766 46.1986 33.554 45.96 30.2021C48.4108 30.0648 50.8675 30.3343 53.2301 31C54.0033 34.5016 53.7487 38.1523 52.4967 41.5127L52.4935 41.5101Z" fill="#171A27"/>
<path d="M19.2474 32.8C19.6155 32.8 19.914 32.5015 19.914 32.1334C19.9755 29.6565 20.9215 27.2834 22.5807 25.4433C22.8408 25.1825 22.8405 24.7603 22.5797 24.5002C22.319 24.2402 21.8968 24.2405 21.6367 24.5012C19.7168 26.5846 18.6292 29.3007 18.5807 32.1334C18.5807 32.5015 18.8792 32.8 19.2474 32.8Z" fill="#171A27"/>
<path d="M24.2588 47.1241C24.571 47.128 24.8441 46.9145 24.9157 46.6104C24.9873 46.3064 24.8386 45.9936 24.5573 45.8575C22.8799 44.8748 21.7054 43.2188 21.3327 41.3106C21.2562 40.9545 20.9076 40.7257 20.5502 40.7969C20.1927 40.8686 19.959 41.2136 20.0254 41.572C20.4743 43.8845 21.9112 45.8855 23.9587 47.0502C24.0515 47.0977 24.1543 47.1231 24.2588 47.1241Z" fill="#171A27"/>
<path d="M30.9147 49.4045L28.7666 48.6887C28.417 48.5722 28.0388 48.761 27.9222 49.1109C27.8057 49.4609 27.9948 49.8388 28.3447 49.9553L30.4925 50.6666C30.8425 50.7831 31.2204 50.594 31.3369 50.2444C31.4535 49.8945 31.2643 49.5165 30.9147 49.4V49.4045Z" fill="#171A27"/>
</svg>
