<svg width="70" height="70" viewBox="0 0 70 70" fill="none" xmlns="http://www.w3.org/2000/svg">
<rect x="2.5" y="2.5" width="65" height="65" stroke="#FF9781" stroke-width="5"/>
<path d="M21.1253 41.7268C20.6522 41.7268 20.1896 41.8644 19.7962 42.1223C19.4027 42.3802 19.0961 42.7467 18.915 43.1755C18.7339 43.6043 18.6866 44.0761 18.7789 44.5314C18.8712 44.9866 19.0991 45.4047 19.4336 45.7329C19.7682 46.0611 20.1945 46.2846 20.6586 46.3752C21.1227 46.4657 21.6037 46.4193 22.0409 46.2416C22.478 46.064 22.8517 45.7632 23.1146 45.3773C23.3775 44.9914 23.5178 44.5377 23.5178 44.0735C23.5171 43.4513 23.2648 42.8548 22.8163 42.4149C22.3678 41.9749 21.7597 41.7275 21.1253 41.7268ZM21.1253 45.2034C20.8975 45.2034 20.6748 45.1372 20.4854 45.013C20.2959 44.8889 20.1483 44.7124 20.0611 44.5059C19.9739 44.2995 19.9511 44.0723 19.9956 43.8531C20.04 43.6339 20.1497 43.4326 20.3108 43.2746C20.4719 43.1166 20.6772 43.0089 20.9006 42.9653C21.1241 42.9217 21.3557 42.9441 21.5662 43.0296C21.7766 43.1152 21.9565 43.26 22.0831 43.4458C22.2097 43.6316 22.2773 43.8501 22.2773 44.0735C22.2769 44.3731 22.1554 44.6602 21.9394 44.8719C21.7235 45.0837 21.4307 45.2028 21.1253 45.2031V45.2034Z" fill="#171A27"/>
<path d="M48.8753 41.7268C48.4022 41.7268 47.9396 41.8644 47.5462 42.1223C47.1527 42.3802 46.8461 42.7467 46.665 43.1755C46.4839 43.6043 46.4366 44.0761 46.5289 44.5314C46.6212 44.9866 46.8491 45.4047 47.1836 45.7329C47.5182 46.0611 47.9445 46.2846 48.4086 46.3752C48.8727 46.4657 49.3537 46.4193 49.7909 46.2416C50.228 46.064 50.6017 45.7632 50.8646 45.3773C51.1275 44.9914 51.2678 44.5377 51.2678 44.0735C51.2671 43.4513 51.0148 42.8548 50.5663 42.4149C50.1178 41.9749 49.5097 41.7275 48.8753 41.7268ZM48.8753 45.2034C48.6475 45.2034 48.4248 45.1372 48.2354 45.013C48.0459 44.8889 47.8983 44.7124 47.8111 44.5059C47.7239 44.2995 47.7011 44.0723 47.7456 43.8531C47.79 43.6339 47.8997 43.4326 48.0608 43.2746C48.2219 43.1166 48.4272 43.0089 48.6506 42.9653C48.8741 42.9217 49.1057 42.9441 49.3162 43.0296C49.5266 43.1152 49.7065 43.26 49.8331 43.4458C49.9597 43.6316 50.0273 43.8501 50.0273 44.0735C50.0269 44.3731 49.9054 44.6602 49.6894 44.872C49.4735 45.0837 49.1807 45.2028 48.8753 45.2031V45.2034Z" fill="#171A27"/>
<path d="M55.8293 37.6566C55.8872 37.597 55.9322 37.5264 55.9615 37.4493C55.9908 37.3721 56.0038 37.2899 55.9998 37.2076C55.9621 36.6956 55.8597 36.1902 55.6951 35.7029C55.3323 34.6351 54.1888 33.9452 52.7814 33.9452C51.9354 33.9452 50.4015 33.9398 49.7016 33.9372L48.3181 31.4465C47.3487 29.7415 45.9346 27.7952 43.5821 27.7952H26.5622C24.6453 27.7952 22.944 29.0861 21.7701 31.4502L20.3258 33.9548C19.6276 33.9534 18.0758 33.9479 17.2188 33.9479C15.8116 33.9479 14.668 34.6365 14.3051 35.7042C14.1406 36.1912 14.0384 36.6964 14.0007 37.2082C13.9966 37.2929 14.0096 37.3776 14.0389 37.4574C14.0682 37.5372 14.1133 37.6105 14.1716 37.6732C14.2287 37.7349 14.2978 37.7847 14.3749 37.8198C14.4519 37.8549 14.5354 37.8745 14.6203 37.8774H14.6211L16.7718 37.8587C15.8342 38.5586 15.231 39.72 15.231 41.0703C15.231 41.0945 15.2326 41.1187 15.2359 41.1427L16.2315 48.8829C16.2452 49.4131 16.4451 49.9224 16.7973 50.3249C17.1495 50.7273 17.6324 50.9983 18.1646 51.092V53.5715C18.166 53.7608 18.2055 53.9481 18.2808 54.1224C18.3561 54.2968 18.4658 54.4548 18.6035 54.5875C18.7412 54.7202 18.9042 54.8249 19.0833 54.8957C19.2623 54.9665 19.4538 55.0019 19.6469 54.9999H22.2431C23.0558 54.9999 23.747 54.3693 23.747 53.5715V51.0887H46.2535V53.5715C46.2535 54.3693 46.9447 54.9999 47.7577 54.9999H50.3539C50.5469 55.0018 50.7384 54.9664 50.9174 54.8956C51.0964 54.8248 51.2594 54.7201 51.3971 54.5874C51.5348 54.4547 51.6444 54.2966 51.7197 54.1223C51.795 53.948 51.8345 53.7608 51.8359 53.5715V51.0842C52.3602 50.9852 52.834 50.7125 53.1778 50.3117C53.5217 49.9109 53.7147 49.4064 53.7246 48.8827L54.7658 41.1421C54.7691 41.1156 54.7706 41.089 54.7703 41.0623C54.7703 39.728 54.1368 38.5487 53.1741 37.8464L55.3805 37.8456C55.4645 37.8456 55.5475 37.8288 55.6247 37.7963C55.7018 37.7638 55.7715 37.7163 55.8293 37.6566ZM22.8598 32.0296C22.8661 32.0186 22.8721 32.0139 22.8775 32.0026C23.4311 30.8832 24.6456 29.012 26.5622 29.012H43.5821C44.9316 29.012 46.024 29.9182 47.2312 32.0414L50.0756 37.1821H47.0196C46.8969 36.1915 46.4087 35.2793 45.6472 34.6176C44.8858 33.956 43.9037 33.5906 42.8864 33.5906C41.8691 33.5906 40.8871 33.956 40.1256 34.6176C39.3641 35.2793 38.876 36.1915 38.7533 37.1821H19.9004L22.8598 32.0296ZM45.7662 37.1821H40.0066C40.125 36.5172 40.4787 35.9146 41.0055 35.4803C41.5323 35.046 42.1983 34.8079 42.8864 34.8079C43.5745 34.8079 44.2406 35.046 44.7673 35.4803C45.2941 35.9146 45.6478 36.5172 45.7662 37.1821ZM15.3343 36.6277C15.3731 36.445 15.4225 36.2647 15.4823 36.0876C15.6704 35.534 16.3684 35.162 17.219 35.162C17.8506 35.162 18.8603 35.1636 19.6267 35.1649L18.7877 36.6233L15.3343 36.6277ZM22.5065 53.5715C22.5065 53.6984 22.372 53.7831 22.2427 53.7831H19.6469C19.6167 53.7852 19.5865 53.7814 19.5579 53.7718C19.5293 53.7623 19.5029 53.7472 19.4804 53.7274C19.4578 53.7077 19.4396 53.6837 19.4266 53.657C19.4137 53.6302 19.4064 53.6011 19.4052 53.5715V51.0887H22.5065V53.5715ZM50.5954 53.5715C50.5941 53.6011 50.5868 53.6302 50.5738 53.657C50.5609 53.6837 50.5426 53.7077 50.5201 53.7274C50.4975 53.7472 50.4712 53.7623 50.4426 53.7718C50.414 53.7814 50.3837 53.7852 50.3535 53.7831H47.7573C47.6279 53.7831 47.4937 53.6984 47.4937 53.5715V51.0887H50.595L50.5954 53.5715ZM53.5283 41.0283L52.4858 48.7599C52.4822 48.7802 52.4804 48.8008 52.4804 48.8215C52.4799 48.9608 52.4512 49.0986 52.3961 49.227C52.3409 49.3553 52.2604 49.4717 52.1591 49.5694C52.0579 49.667 51.9379 49.7441 51.8061 49.796C51.6743 49.8479 51.5333 49.8737 51.3913 49.8718H18.5646C18.4226 49.8737 18.2816 49.848 18.1497 49.7961C18.0179 49.7442 17.8979 49.6672 17.7966 49.5695C17.6953 49.4718 17.6147 49.3554 17.5595 49.227C17.5044 49.0986 17.4757 48.9608 17.4752 48.8215C17.4752 48.7989 17.4735 48.7765 17.4702 48.7542L16.4717 41.0212C16.4875 39.7446 17.3275 38.4485 18.7312 38.378C18.7661 38.3879 18.8019 38.3949 18.8381 38.3989H51.0951C51.1009 38.3989 51.1065 38.3914 51.1122 38.3914C52.4333 38.3914 53.51 39.5685 53.5283 41.0283ZM51.1905 36.6304L50.3753 35.1568C51.1405 35.1594 52.1508 35.1623 52.7809 35.1623C53.6315 35.1623 54.3296 35.5343 54.5176 36.0881C54.5775 36.2655 54.627 36.4461 54.6658 36.6291L51.1905 36.6304Z" fill="#171A27"/>
<path d="M26.7938 45.3522H43.2071C43.3055 45.353 43.4026 45.3306 43.4903 45.2869C43.5781 45.2432 43.6539 45.1796 43.7114 45.1013C43.7689 45.023 43.8064 44.9323 43.8209 44.8368C43.8353 44.7414 43.8262 44.6439 43.7944 44.5526L43.2284 42.9201C42.8395 41.7989 41.5892 40.9194 40.3809 40.9194H29.5754C28.3644 40.9194 27.1209 41.8051 26.7453 42.9343L26.2042 44.5613C26.1739 44.6523 26.1661 44.749 26.1815 44.8435C26.1968 44.938 26.2349 45.0276 26.2925 45.1049C26.3501 45.1821 26.4256 45.2449 26.5127 45.2879C26.5999 45.3309 26.6962 45.3529 26.7938 45.3522ZM27.9246 43.3089C28.1333 42.6832 28.9042 42.1363 29.5754 42.1363H40.3809C41.0551 42.1363 41.8368 42.6839 42.0539 43.3097L42.341 44.1354H27.6488L27.9246 43.3089Z" fill="#171A27"/>
<path d="M45.3732 46.3083H25.13C24.9655 46.3083 24.8078 46.3725 24.6914 46.4866C24.5751 46.6006 24.5098 46.7554 24.5098 46.9168C24.5098 47.0781 24.5751 47.2329 24.6914 47.347C24.8078 47.4611 24.9655 47.5252 25.13 47.5252H45.3732C45.5377 47.5252 45.6954 47.4611 45.8118 47.347C45.9281 47.2329 45.9934 47.0781 45.9934 46.9168C45.9934 46.7554 45.9281 46.6006 45.8118 46.4866C45.6954 46.3725 45.5377 46.3083 45.3732 46.3083Z" fill="#171A27"/>
<path d="M35.8863 21.6353C35.778 21.6353 35.6717 21.663 35.5778 21.7158C35.4839 21.7686 35.4058 21.8446 35.3511 21.9362L34.1576 23.9347C33.9793 24.2333 33.8845 24.5727 33.8828 24.9187C33.8812 25.2647 33.9727 25.605 34.1481 25.9052C34.3235 26.2054 34.5766 26.4549 34.8818 26.6284C35.187 26.8018 35.5335 26.8932 35.8863 26.8932C36.239 26.8932 36.5855 26.8018 36.8907 26.6284C37.1959 26.4549 37.449 26.2054 37.6244 25.9052C37.7998 25.605 37.8913 25.2647 37.8897 24.9187C37.888 24.5727 37.7932 24.2333 37.6149 23.9347L36.4214 21.9362C36.3668 21.8446 36.2886 21.7686 36.1947 21.7158C36.1008 21.663 35.9945 21.6353 35.8863 21.6353ZM36.4257 25.4571C36.2945 25.5858 36.1201 25.6631 35.935 25.6747C35.7499 25.6863 35.5668 25.6313 35.42 25.5201C35.2732 25.4089 35.1727 25.2491 35.1374 25.0704C35.102 24.8918 35.1343 24.7067 35.228 24.5497L35.8863 23.4475L36.5445 24.5497C36.6298 24.6926 36.6644 24.8591 36.6429 25.0233C36.6214 25.1875 36.545 25.3401 36.4257 25.4572V25.4571Z" fill="#171A27"/>
<path d="M29.295 21.6353C29.1868 21.6353 29.0804 21.663 28.9865 21.7158C28.8927 21.7686 28.8145 21.8446 28.7598 21.9362L27.5662 23.9347C27.3879 24.2333 27.2932 24.5727 27.2915 24.9187C27.2899 25.2647 27.3814 25.605 27.5568 25.9052C27.7322 26.2054 27.9853 26.4548 28.2905 26.6283C28.5957 26.8018 28.9422 26.8931 29.2949 26.8931C29.6477 26.8931 29.9942 26.8018 30.2994 26.6283C30.6046 26.4548 30.8577 26.2054 31.0331 25.9052C31.2085 25.605 31.3 25.2647 31.2984 24.9187C31.2967 24.5727 31.2019 24.2333 31.0237 23.9347L29.8301 21.9362C29.7754 21.8446 29.6972 21.7686 29.6034 21.7158C29.5095 21.6631 29.4032 21.6353 29.295 21.6353ZM29.8346 25.4572C29.7035 25.5859 29.529 25.6633 29.3438 25.675C29.1587 25.6866 28.9755 25.6317 28.8287 25.5204C28.6819 25.4092 28.5814 25.2493 28.5461 25.0706C28.5107 24.892 28.543 24.7068 28.6368 24.5498L29.2951 23.4475L29.9534 24.5498C30.0387 24.6927 30.0733 24.8592 30.0518 25.0234C30.0303 25.1876 29.9539 25.3401 29.8346 25.4572Z" fill="#171A27"/>
<path d="M41.0612 26.3177C41.4056 26.6558 41.8638 26.8593 42.3501 26.8899C42.8364 26.9205 43.3174 26.7763 43.703 26.4841C44.0887 26.1919 44.3526 25.7719 44.4453 25.3027C44.538 24.8334 44.4532 24.3471 44.2068 23.9348L43.0132 21.9361C42.9585 21.8446 42.8803 21.7686 42.7864 21.7158C42.6926 21.663 42.5862 21.6353 42.478 21.6353C42.3698 21.6353 42.2635 21.663 42.1696 21.7158C42.0757 21.7686 41.9975 21.8446 41.9428 21.9361L40.7493 23.9347C40.5253 24.3098 40.4345 24.7472 40.4909 25.1784C40.5474 25.6095 40.7479 26.0102 41.0612 26.3177ZM41.8195 24.5498L42.4778 23.4475L43.1361 24.5498C43.204 24.6635 43.2401 24.7927 43.2407 24.9245C43.2413 25.0563 43.2065 25.1858 43.1397 25.3002C43.0729 25.4145 42.9765 25.5094 42.8603 25.5755C42.7441 25.6416 42.6121 25.6764 42.4778 25.6764C42.3435 25.6764 42.2115 25.6416 42.0953 25.5755C41.9791 25.5094 41.8827 25.4145 41.8159 25.3002C41.7491 25.1858 41.7142 25.0563 41.7149 24.9245C41.7155 24.7927 41.7516 24.6635 41.8195 24.5498Z" fill="#171A27"/>
<path d="M32.8205 15.3009C32.7658 15.2093 32.6876 15.1333 32.5937 15.0806C32.4998 15.0278 32.3935 15 32.2853 15C32.177 15 32.0707 15.0278 31.9768 15.0806C31.8829 15.1333 31.8048 15.2093 31.7501 15.3009L30.5566 17.2994C30.3783 17.5979 30.2835 17.9373 30.2819 18.2833C30.2802 18.6294 30.3717 18.9696 30.5471 19.2698C30.7225 19.57 30.9757 19.8195 31.2809 19.9929C31.5861 20.1664 31.9326 20.2578 32.2853 20.2578C32.638 20.2578 32.9845 20.1664 33.2897 19.9929C33.5949 19.8195 33.8481 19.57 34.0235 19.2698C34.1989 18.9696 34.2904 18.6294 34.2887 18.2833C34.2871 17.9373 34.1923 17.5979 34.014 17.2994L32.8205 15.3009ZM32.8248 18.8218C32.6936 18.9505 32.5192 19.0279 32.334 19.0395C32.1488 19.0512 31.9657 18.9962 31.8189 18.885C31.672 18.7738 31.5716 18.6139 31.5362 18.4352C31.5009 18.2565 31.5332 18.0714 31.627 17.9144L32.2853 16.8121L32.9436 17.9144C33.0289 18.0572 33.0634 18.2238 33.0419 18.3879C33.0204 18.5521 32.9441 18.7047 32.8248 18.8218Z" fill="#171A27"/>
<path d="M40.0227 15.3009C39.968 15.2093 39.8898 15.1333 39.7959 15.0806C39.702 15.0278 39.5957 15 39.4875 15C39.3793 15 39.2729 15.0278 39.1791 15.0806C39.0852 15.1333 39.007 15.2093 38.9523 15.3009L37.7587 17.2994C37.5805 17.5979 37.4857 17.9373 37.484 18.2833C37.4824 18.6294 37.5739 18.9696 37.7493 19.2698C37.9247 19.57 38.1778 19.8195 38.483 19.9929C38.7882 20.1664 39.1347 20.2578 39.4874 20.2578C39.8402 20.2578 40.1867 20.1664 40.4919 19.9929C40.7971 19.8195 41.0502 19.57 41.2256 19.2698C41.401 18.9696 41.4925 18.6294 41.4909 18.2833C41.4892 17.9373 41.3944 17.5979 41.2162 17.2994L40.0227 15.3009ZM40.0269 18.8218C39.8958 18.9505 39.7213 19.0279 39.5361 19.0395C39.351 19.0512 39.1679 18.9962 39.021 18.885C38.8742 18.7738 38.7737 18.6139 38.7384 18.4352C38.7031 18.2565 38.7353 18.0714 38.8291 17.9144L39.4875 16.8121L40.1458 17.9144C40.231 18.0572 40.2656 18.2238 40.2441 18.3879C40.2226 18.5521 40.1462 18.7047 40.0269 18.8218Z" fill="#171A27"/>
</svg>
