<svg width="64" height="64" viewBox="0 0 64 64" fill="none" xmlns="http://www.w3.org/2000/svg">
<path fill-rule="evenodd" clip-rule="evenodd" d="M41 9H5V59H55V34H60V59V64H55H5H0V59V9V4H5H41V9Z" fill="#FF9781"/>
<path d="M63.04 19.884H59.848V24H55.424V19.884H44.868V16.832L54.108 4.4H58.868L50.3 16.188H55.564V12.52H59.848V16.188H63.04V19.884Z" fill="#FF9781"/>
<path d="M36.5861 38.32C36.5861 39.1693 36.3608 39.9493 35.9101 40.66C35.4768 41.3533 34.8095 41.9253 33.9081 42.376C33.0068 42.8267 31.8888 43.078 30.5541 43.13V46.12H29.5921V43.13C28.3268 43.078 27.1308 42.8267 26.0041 42.376C24.8948 41.9253 24.0281 41.3533 23.4041 40.66L24.0021 39.672C24.6088 40.296 25.4148 40.8247 26.4201 41.258C27.4255 41.674 28.4828 41.908 29.5921 41.96V34.42C28.3961 34.1253 27.4081 33.8133 26.6281 33.484C25.8481 33.1547 25.1981 32.6693 24.6781 32.028C24.1581 31.3867 23.8981 30.546 23.8981 29.506C23.8981 28.206 24.3748 27.1053 25.3281 26.204C26.2988 25.3027 27.7201 24.8 29.5921 24.696V21.68H30.5541V24.67C31.5421 24.7047 32.4955 24.8693 33.4141 25.164C34.3501 25.4413 35.1561 25.8227 35.8321 26.308L35.3381 27.374C34.6275 26.8887 33.8561 26.5247 33.0241 26.282C32.1921 26.022 31.3688 25.8747 30.5541 25.84V33.38C31.8715 33.7093 32.9288 34.03 33.7261 34.342C34.5235 34.654 35.1995 35.1307 35.7541 35.772C36.3088 36.396 36.5861 37.2453 36.5861 38.32ZM25.2241 29.48C25.2241 30.5373 25.5968 31.326 26.3421 31.846C27.0875 32.3487 28.1708 32.782 29.5921 33.146V25.866C28.1535 25.97 27.0615 26.36 26.3161 27.036C25.5881 27.6947 25.2241 28.5093 25.2241 29.48ZM30.5541 41.96C32.1141 41.8907 33.2841 41.5267 34.0641 40.868C34.8615 40.2093 35.2601 39.386 35.2601 38.398C35.2601 37.6353 35.0521 37.02 34.6361 36.552C34.2201 36.0667 33.6915 35.694 33.0501 35.434C32.4088 35.174 31.5768 34.914 30.5541 34.654V41.96Z" fill="#061229"/>
</svg>
