<svg width="70" height="70" viewBox="0 0 70 70" fill="none" xmlns="http://www.w3.org/2000/svg">
<rect x="2.5" y="2.5" width="65" height="65" stroke="#FF9781" stroke-width="5"/>
<path d="M52.1999 33.5984L51.1641 29.5046C51.4473 29.4451 51.6598 29.1969 51.6598 28.8995V28.2394C51.6598 26.8063 50.4797 25.6404 49.0293 25.6404H44.3112V24.2789C44.3112 23.5737 43.7305 23 43.0168 23H18.9666C18.2528 23 17.6722 23.5737 17.6722 24.2789V35.5001C17.6722 35.8418 17.9526 36.119 18.2985 36.119C18.6444 36.119 18.9249 35.8419 18.9249 35.5001V24.2789C18.9249 24.2561 18.9435 24.2377 18.9666 24.2377H43.0167C43.0397 24.2377 43.0584 24.2561 43.0584 24.2789V35.5003C43.0584 35.842 43.3388 36.1191 43.6847 36.1191C44.0306 36.1191 44.3111 35.8421 44.3111 35.5003V34.7988H51.6993C51.6999 34.7988 51.7004 34.7989 51.7009 34.7989C51.7016 34.7989 51.7021 34.7988 51.7027 34.7988C52.6118 34.7995 53.3837 35.389 53.6489 36.2015H51.7014C51.3555 36.2015 51.0751 36.4785 51.0751 36.8203V38.1404C51.0751 39.2096 51.9554 40.0794 53.0375 40.0794H53.7473V42.8021H52.1097C51.5717 41.2673 50.0951 40.1618 48.3611 40.1618C46.6271 40.1618 45.1504 41.2673 44.6125 42.8021H44.3109V38.1404C44.3109 37.7986 44.0305 37.5215 43.6846 37.5215C43.3387 37.5215 43.0583 37.7985 43.0583 38.1404V42.802H30.0639C29.5259 41.2672 28.0492 40.1617 26.3153 40.1617C24.5813 40.1617 23.1045 41.2672 22.5667 42.802H18.9666C18.9435 42.802 18.9249 42.7835 18.9249 42.7608V41.3993H21.6388C21.9847 41.3993 22.2652 41.1223 22.2652 40.7805C22.2652 40.4387 21.9848 40.1617 21.6388 40.1617H15.6263C15.2805 40.1617 15 40.4387 15 40.7805C15 41.1223 15.2804 41.3993 15.6263 41.3993H17.6723V42.7608C17.6723 43.466 18.2529 44.0397 18.9666 44.0397H22.3498C22.3496 44.0534 22.3487 44.0671 22.3487 44.0809C22.3487 46.2419 24.1281 48 26.3153 48C28.5024 48 30.2818 46.2419 30.2818 44.0809C30.2818 44.067 30.2809 44.0534 30.2807 44.0397H44.3956C44.3954 44.0534 44.3945 44.0671 44.3945 44.0809C44.3945 46.2419 46.174 48 48.3611 48C50.5482 48 52.3277 46.2419 52.3277 44.0809C52.3277 44.067 52.3267 44.0534 52.3266 44.0397H54.3737C54.7195 44.0397 55 43.7626 55 43.4208V36.8202C55.0001 35.1905 53.7831 33.8365 52.1999 33.5984ZM44.3112 26.878H49.0293C49.7891 26.878 50.4072 27.4887 50.4072 28.2394V28.2806H44.3112V26.878ZM44.3112 33.5612V29.5182H49.8764L50.8994 33.5612H44.3112ZM26.3153 46.7626C24.8188 46.7626 23.6013 45.5597 23.6013 44.081C23.6013 42.6024 24.8188 41.3995 26.3153 41.3995C27.8117 41.3995 29.0292 42.6024 29.0292 44.081C29.0292 45.5597 27.8117 46.7626 26.3153 46.7626ZM48.3612 46.7626C46.8648 46.7626 45.6472 45.5597 45.6472 44.081C45.6472 42.6024 46.8648 41.3995 48.3612 41.3995C49.8577 41.3995 51.0752 42.6024 51.0752 44.081C51.0752 45.5597 49.8577 46.7626 48.3612 46.7626ZM53.7475 38.8417H53.0377C52.6462 38.8417 52.3278 38.5271 52.3278 38.1404V37.439H53.7474V38.8417H53.7475Z" fill="#171A27"/>
<path d="M36.779 29.1216C36.5345 28.88 36.1379 28.88 35.8933 29.1217L30.3236 34.6247L27.4262 31.7619C27.1816 31.5203 26.785 31.5203 26.5405 31.7619C26.2959 32.0036 26.2959 32.3954 26.5405 32.637L29.8808 35.9374C30.0031 36.0583 30.1634 36.1187 30.3236 36.1187C30.4839 36.1187 30.6443 36.0583 30.7665 35.9374L36.779 29.9968C37.0236 29.7551 37.0236 29.3633 36.779 29.1216Z" fill="#171A27"/>
<path d="M24.9792 37.5215H16.9625C16.6167 37.5215 16.3362 37.7985 16.3362 38.1403C16.3362 38.4821 16.6166 38.7592 16.9625 38.7592H24.9792C25.3251 38.7592 25.6056 38.4821 25.6056 38.1403C25.6056 37.7985 25.3251 37.5215 24.9792 37.5215Z" fill="#171A27"/>
</svg>
