<svg width="70" height="70" viewBox="0 0 70 70" fill="none" xmlns="http://www.w3.org/2000/svg">
<rect x="2.5" y="2.5" width="65" height="65" stroke="#FF9781" stroke-width="5"/>
<path d="M58.4741 15H35.5H19.8603C19.4476 15 19.1133 15.3418 19.1133 15.7634C19.1133 16.1851 19.4476 16.5269 19.8603 16.5269H34.7528V25.862C30.1532 26.2513 26.5266 30.2008 26.5266 34.9999C26.5266 39.799 30.1532 43.7484 34.7528 44.1379V53.4729H12.5258C11.957 53.4729 11.4942 53 11.4942 52.4188V47.5703H18.8449C19.859 47.5703 20.6839 46.7274 20.6839 45.6912V24.3086C20.6839 23.2724 19.859 22.4295 18.8449 22.4295H11.4942V17.5809C11.4942 16.9997 11.957 16.5269 12.5258 16.5269H17.2704C17.6831 16.5269 18.0175 16.1851 18.0175 15.7634C18.0175 15.3418 17.6831 15 17.2704 15H12.5258C11.1331 15 10 16.1578 10 17.5809C10 17.8857 10 46.5033 10 46.8069V52.4189C10 53.8421 11.1331 55 12.5258 55C13.522 55 57.4779 55 58.4742 55C59.8669 55 61 53.8421 61 52.4189V46.8069C61 46.5034 61 17.8858 61 17.581C61 16.1578 59.8669 15 58.4741 15ZM11.4942 23.9565H18.8449C19.035 23.9565 19.1897 24.1145 19.1897 24.3086V45.6912C19.1897 45.8853 19.035 46.0433 18.8449 46.0433H11.4942V23.9565ZM34.7528 33.5522C34.2447 33.8266 33.8981 34.3715 33.8981 34.9999C33.8981 35.628 34.2447 36.1727 34.7528 36.4473V42.6047C30.9784 42.2204 28.0208 38.9568 28.0208 35C28.0208 31.0433 30.9783 27.7796 34.7528 27.3952V33.5522ZM36.2471 36.4472C36.7552 36.1727 37.1018 35.6279 37.1018 34.9998C37.1018 34.3715 36.7552 33.8266 36.2471 33.5521V27.3951C40.0216 27.7794 42.9791 31.0431 42.9791 34.9999C42.9791 38.9567 40.0215 42.2203 36.2471 42.6047V36.4472ZM59.5057 22.4295H52.155C51.1409 22.4295 50.316 23.2724 50.316 24.3086V26.347C50.316 26.7686 50.6504 27.1104 51.0631 27.1104C51.4757 27.1104 51.8101 26.7686 51.8101 26.347V24.3086C51.8101 24.1145 51.9648 23.9565 52.1549 23.9565H59.5056V46.0433H52.1549C51.9648 46.0433 51.8101 45.8853 51.8101 45.6912V28.9938C51.8101 28.5721 51.4757 28.2303 51.0631 28.2303C50.6504 28.2303 50.316 28.5721 50.316 28.9938V45.6911C50.316 46.7274 51.1409 47.5702 52.155 47.5702H59.5057V52.4188C59.5058 53 59.043 53.4729 58.4741 53.4729H36.2471V44.1379C40.8467 43.7485 44.4733 39.7991 44.4733 34.9999C44.4733 30.2007 40.8467 26.2513 36.2471 25.862V16.527H58.4742C59.043 16.527 59.5058 16.9998 59.5058 17.581V22.4295H59.5057Z" fill="#171A27"/>
</svg>
