<svg width="70" height="70" viewBox="0 0 70 70" fill="none" xmlns="http://www.w3.org/2000/svg">
<rect x="2.5" y="2.5" width="65" height="65" stroke="#FF9781" stroke-width="5"/>
<path d="M49.3168 18.8258C48.5613 18.5603 47.8266 18.6314 47.3005 19.0201L46.5094 19.6046L45.9302 18.8207C44.8898 17.4125 43.046 17.0025 41.8213 17.9074L40.7783 18.678L39.7093 17.231C39.2061 16.55 38.4785 16.0605 37.7135 15.8867C36.1921 15.5419 34.7759 16.5883 34.6585 18.1438C34.5999 18.9273 34.8541 19.7665 35.3573 20.4476L40.373 27.2362L26.2273 37.6877L21.2116 30.8991C20.7083 30.2181 19.9814 29.7281 19.2157 29.5548C17.6943 29.21 16.2781 30.2564 16.1608 31.8119C16.1016 32.5947 16.3558 33.4339 16.859 34.115L17.9281 35.5619L16.7583 36.4262C16.2083 36.8326 15.8682 37.4606 15.8003 38.1951C15.7334 38.9413 15.9686 39.7399 16.4451 40.3849L17.1299 41.3117L16.3464 41.8905C15.8176 42.2813 15.5326 42.9656 15.5649 43.7686C15.596 44.5301 15.8989 45.3374 16.4184 46.0405L19.3074 49.9506C19.8269 50.6537 20.5096 51.1804 21.2289 51.4334C21.987 51.7002 22.7249 51.6288 23.2531 51.2384L24.0366 50.6596L24.7213 51.5864C25.1979 52.2314 25.8922 52.6907 26.6272 52.8465C27.3477 52.9975 28.0479 52.8569 28.5979 52.4505L29.7677 51.5862L30.8367 53.0332C31.3399 53.7142 32.0675 54.2037 32.8321 54.3768C33.5925 54.5489 34.3283 54.4099 34.9039 53.9846C35.4796 53.5593 35.8286 52.8967 35.8875 52.1193C35.9467 51.3365 35.692 50.4977 35.1893 49.8173L30.1735 43.0287L44.3192 32.5772L49.335 39.3657C49.8382 40.0468 50.5657 40.5363 51.3303 40.7094C52.0907 40.8815 52.8266 40.7424 53.4022 40.3171C53.9778 39.8918 54.3268 39.2293 54.3858 38.4519C54.4444 37.6695 54.1902 36.8303 53.6875 36.1499L52.6184 34.703L53.6614 33.9324C54.8861 33.0275 55.0362 31.1453 53.9953 29.7364L53.4161 28.9525L54.2072 28.368C54.7333 27.9793 55.0166 27.2973 54.9858 26.4974C54.9551 25.7387 54.654 24.9351 54.1365 24.2347L51.2313 20.3025C50.7132 19.6025 50.0335 19.0776 49.3168 18.8258ZM22.2665 49.903C22.0592 50.0562 21.7632 50.0767 21.4337 49.9609C21.0593 49.8298 20.6807 49.5326 20.3955 49.1466L17.5066 45.2365C17.2214 44.8506 17.049 44.402 17.0331 44.005C17.0192 43.656 17.1258 43.3791 17.3331 43.2259L18.1166 42.6471L23.0499 49.3242L22.2665 49.903ZM27.6113 51.1151C27.3376 51.3173 26.9813 51.3917 26.6356 51.3188C26.3066 51.2492 26.0137 51.0588 25.8095 50.7824L24.6314 49.1879L18.7114 41.1754L17.5333 39.5809C17.329 39.3045 17.2326 38.968 17.2626 38.6352C17.2956 38.2815 17.4709 37.9631 17.7445 37.7609L18.9143 36.8967L28.781 50.2508L27.6113 51.1151ZM34.1011 50.6213C34.3374 50.9411 34.4516 51.3244 34.4232 51.7004C34.3645 52.4746 33.6196 53.0249 32.8623 52.8537C32.494 52.7707 32.1607 52.5484 31.9249 52.2292L30.3625 50.1146L19.5091 35.425L17.9467 33.3103C17.7104 32.9905 17.5962 32.6072 17.6246 32.2312C17.6539 31.8441 17.8383 31.4983 18.1305 31.2825C18.4227 31.0666 18.8074 30.9919 19.186 31.0775C19.5538 31.1609 19.8871 31.3833 20.1234 31.7031L25.6325 39.1594L28.5925 43.1656L34.1011 50.6213ZM29.1868 41.6933L27.2135 39.0225L41.3592 28.5709L43.3325 31.2417L29.1868 41.6933ZM52.5993 36.9539C52.8357 37.2737 52.9498 37.657 52.9214 38.033C52.8627 38.8072 52.1179 39.3575 51.3605 39.1863C50.9922 39.1033 50.6589 38.8809 50.4231 38.5618L44.914 31.1055L41.954 27.0992L36.4454 19.6436C36.2091 19.3238 36.095 18.9405 36.1233 18.5645C36.1527 18.1774 36.3371 17.8316 36.6292 17.6157C36.9214 17.3999 37.3061 17.3252 37.6848 17.4108C38.052 17.4935 38.3853 17.7158 38.6216 18.0357L40.184 20.1503L51.0374 34.8399L52.5993 36.9539ZM52.9072 30.5404C53.404 31.2128 53.2998 32.1351 52.6747 32.5969L51.6317 33.3675L41.765 20.0134L42.808 19.2428C43.4326 18.7813 44.3453 18.9523 44.8421 19.6247L45.9146 21.0763L51.8347 29.0888L52.9072 30.5404ZM53.0474 25.0384C53.3305 25.4216 53.5011 25.8664 53.5176 26.2599C53.5316 26.6067 53.4256 26.8811 53.2205 27.0326L52.4295 27.6171L47.4961 20.94L48.2872 20.3555C48.4923 20.204 48.7857 20.1833 49.1131 20.2986C49.4844 20.4289 49.8594 20.7236 50.1426 21.1069L53.0474 25.0384Z" fill="#171A27"/>
</svg>
