<svg width="65" height="64" viewBox="0 0 65 64" fill="none" xmlns="http://www.w3.org/2000/svg">
<path fill-rule="evenodd" clip-rule="evenodd" d="M41 9H5V59H55V32H60V59V64H55H5H0V59V9V4H5H41V9Z" fill="#FF9781"/>
<path d="M58.248 12.38C59.9653 12.66 61.2813 13.304 62.196 14.312C63.1107 15.3013 63.568 16.5333 63.568 18.008C63.568 19.1467 63.2693 20.2013 62.672 21.172C62.0747 22.124 61.16 22.8893 59.928 23.468C58.7147 24.0467 57.2213 24.336 55.448 24.336C54.0667 24.336 52.704 24.1587 51.36 23.804C50.0347 23.4307 48.9053 22.908 47.972 22.236L49.736 18.764C50.4827 19.324 51.3413 19.7627 52.312 20.08C53.3013 20.3787 54.3093 20.528 55.336 20.528C56.4747 20.528 57.3707 20.3133 58.024 19.884C58.6773 19.436 59.004 18.8107 59.004 18.008C59.004 16.4027 57.7813 15.6 55.336 15.6H53.264V12.604L57.296 8.04H48.952V4.4H62.672V7.34L58.248 12.38Z" fill="#FF9781"/>
<path d="M40.7434 30.8444L29.5843 20.234C29.2593 19.922 28.7408 19.922 28.4157 20.234L17.257 30.844C17.0928 31.0001 17 31.2153 17 31.4401C17 31.8978 17.3767 32.2687 17.8414 32.2687H19.3243V43.8688C19.3243 44.3264 19.7009 44.6974 20.1656 44.6974H26.0552C26.5199 44.6974 26.8966 44.3264 26.8966 43.8688V37.2402H31.1034V43.8688C31.1034 44.3264 31.4801 44.6974 31.9448 44.6974H37.8344C38.2991 44.6974 38.6757 44.3264 38.6757 43.8688V32.2687H40.1587C40.3868 32.2687 40.6051 32.1775 40.7636 32.016C41.0865 31.687 41.0775 31.1624 40.7434 30.8444ZM38.6757 31.4401C38.211 31.4401 37.8344 31.8111 37.8344 32.2687V43.8688H31.9448V37.2402C31.9448 36.7826 31.5681 36.4116 31.1034 36.4116H26.8966C26.4319 36.4116 26.0552 36.7826 26.0552 37.2402V43.8688H20.1656V32.2687C20.1656 31.8111 19.789 31.4401 19.3243 31.4401H17.8414L29 20.8302L40.1629 31.4401H38.6757Z" fill="#061229"/>
</svg>
