<svg width="37" height="37" viewBox="0 0 37 37" fill="none" xmlns="http://www.w3.org/2000/svg">
<g clip-path="url(#clip0)">
<path d="M26.7764 8.00562C24.8662 8.00562 23.3569 9.5385 23.3569 11.4487C23.3569 13.3589 24.8898 14.8682 26.7764 14.8682C28.6631 14.8682 30.2195 13.3353 30.2195 11.4251C30.2195 9.51491 28.6866 8.00562 26.7764 8.00562ZM26.7764 14.1136C25.2907 14.1136 24.088 12.9108 24.088 11.4251C24.088 9.9394 25.3143 8.76026 26.7764 8.76026C28.2622 8.76026 29.4649 9.96299 29.4649 11.4487C29.4649 12.9344 28.2622 14.1136 26.7764 14.1136Z" fill="black"/>
<path d="M27.8614 11.9676C27.8378 11.8968 27.8378 11.8496 27.7907 11.7789C27.7671 11.7317 27.7435 11.661 27.6963 11.6138C27.6492 11.5667 27.6256 11.5195 27.5784 11.4723C27.5313 11.4252 27.4841 11.378 27.4133 11.3544C27.3662 11.3072 27.2954 11.2837 27.2483 11.2601C27.1775 11.2365 27.1303 11.1893 27.0596 11.1657C26.9889 11.1422 26.9181 11.1186 26.8709 11.095C26.8474 11.095 26.8002 11.0714 26.7766 11.0478C26.753 11.0242 26.7059 11.0242 26.6823 11.0007C26.6587 10.9771 26.6115 10.9771 26.5879 10.9535C26.5644 10.9299 26.5408 10.9063 26.5172 10.8828C26.4936 10.8592 26.47 10.8356 26.47 10.7884C26.4464 10.7648 26.4464 10.7177 26.4464 10.6941C26.4464 10.6469 26.4464 10.6233 26.4464 10.5762C26.4464 10.5526 26.47 10.5054 26.47 10.4818C26.4936 10.4583 26.4936 10.4111 26.5172 10.3875C26.5408 10.3639 26.5644 10.3403 26.5879 10.3168C26.6115 10.2932 26.6587 10.2696 26.7059 10.2696C26.753 10.246 26.7766 10.246 26.8238 10.246C26.8474 10.246 26.8709 10.246 26.8945 10.246C26.9181 10.246 26.9417 10.246 26.9653 10.246C27.0124 10.246 27.036 10.246 27.0832 10.2696C27.1303 10.2696 27.1775 10.2932 27.2011 10.2932C27.2247 10.2932 27.2718 10.3168 27.2954 10.3168C27.3426 10.3168 27.3662 10.3403 27.3898 10.3403L27.5077 10.3875L27.5313 10.246L27.5784 9.86869V9.77436L27.4841 9.75078C27.4605 9.75078 27.4133 9.7272 27.3898 9.7272C27.3662 9.7272 27.3426 9.70361 27.2954 9.70361C27.2718 9.70361 27.2247 9.68003 27.1775 9.68003C27.1303 9.68003 27.1068 9.65645 27.0596 9.65645H27.036V9.32629V9.20837H26.9181H26.5879H26.47V9.32629V9.68003H26.4464C26.3757 9.70361 26.3049 9.72719 26.2342 9.77436C26.1635 9.79794 26.1163 9.84511 26.0691 9.89227C26.022 9.93944 25.9748 9.98661 25.9276 10.0574C25.8805 10.1045 25.8569 10.1753 25.8333 10.246C25.8097 10.3168 25.7861 10.3875 25.7625 10.4583C25.739 10.529 25.739 10.6233 25.739 10.6941C25.739 10.7648 25.739 10.812 25.7625 10.8828C25.7861 10.9535 25.7861 11.0007 25.8333 11.0714C25.8569 11.1186 25.904 11.1893 25.9276 11.2365C25.9748 11.2837 25.9984 11.3308 26.0455 11.378C26.0927 11.4252 26.1399 11.4723 26.2106 11.4959C26.2578 11.5431 26.3285 11.5667 26.3757 11.5902C26.4464 11.6138 26.5172 11.661 26.5644 11.6846C26.6351 11.7081 26.7059 11.7317 26.753 11.7553C26.7766 11.7553 26.8238 11.7789 26.8474 11.8025C26.8709 11.8261 26.9181 11.8261 26.9417 11.8496C26.9653 11.8732 26.9889 11.8968 27.0124 11.8968C27.036 11.9204 27.0596 11.944 27.0832 11.9676C27.1068 11.9911 27.1068 12.0147 27.1303 12.0619C27.1303 12.0855 27.1539 12.1326 27.1539 12.1798C27.1539 12.227 27.1539 12.2506 27.1539 12.2977C27.1539 12.3213 27.1303 12.3685 27.1068 12.392C27.0832 12.4156 27.0596 12.4392 27.036 12.4628C27.0124 12.4864 26.9889 12.51 26.9417 12.5335C26.9181 12.5571 26.8709 12.5571 26.8474 12.5807C26.8238 12.5807 26.7766 12.6043 26.7294 12.6043C26.7059 12.6043 26.6823 12.6043 26.6351 12.6043C26.6115 12.6043 26.5644 12.6043 26.5408 12.6043C26.4936 12.6043 26.4464 12.6043 26.4229 12.6043C26.3757 12.6043 26.3285 12.5807 26.3049 12.5807C26.2578 12.5807 26.2106 12.5571 26.1635 12.5335C26.1163 12.51 26.0691 12.51 26.022 12.4864C25.9984 12.4864 25.9748 12.4628 25.9512 12.4628C25.9276 12.4628 25.904 12.4392 25.8805 12.4392L25.739 12.3685L25.7154 12.5335L25.6682 12.958V13.0288L25.739 13.0524C25.8333 13.0288 25.8805 13.0524 25.9512 13.0759C25.9984 13.0995 26.0691 13.1231 26.1163 13.1231C26.1635 13.1467 26.2342 13.1467 26.3049 13.1703C26.3757 13.1939 26.4229 13.1939 26.4936 13.1939H26.5408V13.5476V13.6655H26.6587H26.9889H27.1068V13.5476V13.1703H27.1303C27.2011 13.1467 27.2718 13.1231 27.3426 13.0759C27.4133 13.0524 27.4605 13.0052 27.5313 12.958C27.5784 12.9109 27.6256 12.8637 27.6728 12.793C27.7199 12.7458 27.7435 12.675 27.7907 12.6043C27.8142 12.5335 27.8378 12.4628 27.8614 12.392C27.885 12.3213 27.885 12.2506 27.885 12.1562C27.885 12.0855 27.885 12.0383 27.8614 11.9676Z" fill="black"/>
<path d="M25.1256 15.3163C25.0077 15.1512 24.7483 15.1277 24.5832 15.2456L20.7628 18.2878L15.834 16.236C15.716 16.1889 15.5745 16.2125 15.4802 16.2832L10.1977 20.0565C10.0326 20.1744 9.98543 20.4102 10.1033 20.5753C10.1741 20.6932 10.292 20.7404 10.4099 20.7404C10.4807 20.7404 10.5514 20.7168 10.6222 20.6696L15.7396 17.0143L20.692 19.066C20.8099 19.1132 20.975 19.0896 21.0693 19.0188L25.0548 15.8587C25.2199 15.7408 25.2435 15.4814 25.1256 15.3163Z" fill="black"/>
<path d="M30.644 28.2396H28.8989V17.3208C28.8989 17.1086 28.7338 16.9435 28.5216 16.9435H25.0549C24.8427 16.9435 24.6776 17.1086 24.6776 17.3208V28.2396H23.4041V21.0941C23.4041 20.8818 23.239 20.7167 23.0268 20.7167H19.5365C19.3243 20.7167 19.1592 20.8818 19.1592 21.0941V28.2396H17.8857V20.5281C17.8857 20.3158 17.7206 20.1507 17.5084 20.1507H14.0417C13.8295 20.1507 13.6644 20.3158 13.6644 20.5281V28.2396H12.3909V22.7449C12.3909 22.5326 12.2259 22.3675 12.0136 22.3675H8.52336C8.31111 22.3675 8.14603 22.5326 8.14603 22.7449V28.2396H6.37732C6.16508 28.2396 6 28.4047 6 28.617C6 28.8292 6.16508 28.9943 6.37732 28.9943H8.49978H11.9664H14.0417H17.5084H19.5365H23.0032H25.0313H28.498H30.6204C30.8327 28.9943 30.9978 28.8292 30.9978 28.617C31.0213 28.4047 30.8563 28.2396 30.644 28.2396ZM11.6127 28.2396H8.90068V23.1222H11.6127V28.2396ZM17.1311 28.2396H14.4191V20.9054H17.1311V28.2396ZM22.6259 28.2396H19.9138V21.4714H22.6259V28.2396ZM28.1442 28.2396H25.4322V17.6981H28.1442V28.2396Z" fill="black"/>
</g>
<rect x="1.5" y="1.5" width="34" height="34" stroke="#FF9781" stroke-width="3"/>
<defs>
<clipPath id="clip0">
<rect x="6" y="6" width="25" height="25" fill="white"/>
</clipPath>
</defs>
</svg>
