<svg width="70" height="70" viewBox="0 0 70 70" fill="none" xmlns="http://www.w3.org/2000/svg">
<path d="M46.2421 35.8296H38.1619C37.748 35.8296 37.4126 36.1636 37.4126 36.5757V41.9245C37.4126 42.3366 37.748 42.6706 38.1619 42.6706H46.2421C46.6559 42.6706 46.9914 42.3366 46.9914 41.9245V36.5757C46.9914 36.1636 46.6559 35.8296 46.2421 35.8296ZM41.4528 41.1785H38.9112V37.3218H41.4528V41.1785ZM45.4928 41.1785H42.9513V37.3218H45.4928V41.1785Z" fill="#171A27"/>
<path d="M32.1074 26.1668C32.0657 24.2644 30.4762 22.7166 28.564 22.7166H28.5408C28.2331 22.7187 27.9266 22.7611 27.6308 22.8414C26.8134 21.3934 25.2569 20.4626 23.5523 20.4626C21.8477 20.4626 20.2911 21.3933 19.4737 22.8414C19.1779 22.7611 18.8715 22.7187 18.5638 22.7166H18.5405C16.6284 22.7166 15.0389 24.2644 14.9972 26.1678L14.9966 26.2111C14.9911 26.7884 15.2143 27.3338 15.6251 27.7467C16.0424 28.1659 16.5987 28.397 17.1917 28.397H29.9128C30.5059 28.397 31.0622 28.1659 31.4794 27.7467C31.8902 27.3338 32.1134 26.7884 32.108 26.2118L32.1074 26.1668ZM30.4147 26.6965C30.2811 26.8309 30.1029 26.9048 29.9128 26.9048H17.1918C17.0016 26.9048 16.8234 26.8308 16.6899 26.6965C16.5628 26.5687 16.4936 26.4012 16.4952 26.2257L16.4955 26.1994C16.5196 25.1018 17.4369 24.2088 18.5404 24.2088H18.5538C18.89 24.2109 19.2098 24.2918 19.5043 24.4491C19.6963 24.5515 19.9234 24.5656 20.1268 24.4881C20.3301 24.4105 20.4895 24.2486 20.5633 24.0447C21.0161 22.7946 22.2173 21.9547 23.5523 21.9547C24.8873 21.9547 26.0885 22.7946 26.5413 24.0446C26.6152 24.2486 26.7745 24.4105 26.9779 24.4881C27.1812 24.5656 27.4082 24.5515 27.6002 24.4491C27.8949 24.2918 28.2146 24.2109 28.5507 24.2088H28.564C29.6677 24.2088 30.585 25.1018 30.6089 26.1984L30.6093 26.2252C30.6111 26.4012 30.5419 26.5687 30.4147 26.6965Z" fill="#171A27"/>
<rect x="2.5" y="2.5" width="65" height="65" stroke="#FF9781" stroke-width="5"/>
<path d="M57.4695 48.6835C57.2049 47.4626 56.2371 46.4991 55.0109 46.2355C54.6991 44.797 53.4115 43.7158 51.8749 43.7158C51.2468 43.7158 50.6608 43.8971 50.1656 44.2089V34.6785H53.1713C53.585 34.6785 53.9206 34.3445 53.9206 33.9324V30.7555C53.9206 30.3434 53.585 30.0094 53.1713 30.0094H40.0809V27.6246H48.7137C49.1276 27.6246 49.463 27.2905 49.463 26.8785V22.9343H56.8758C57.4688 22.9343 58.0252 22.7033 58.4424 22.284C58.8532 21.8712 59.0765 21.3257 59.071 20.7461L59.0702 20.7042C59.0286 18.8018 57.4392 17.254 55.5269 17.254H55.5039C55.1962 17.256 54.8896 17.2983 54.5938 17.3787C53.7764 15.9307 52.22 15 50.5153 15C48.8107 15 47.2542 15.9306 46.4368 17.3787C46.1409 17.2984 45.8344 17.256 45.5268 17.254H45.5036C43.6001 17.254 42.017 18.7878 41.9615 20.6789H40.0808C40.0802 20.2673 39.745 19.9338 39.3316 19.9338C38.9177 19.9338 38.5822 20.2679 38.5822 20.6799V21.425V26.8784V30.0093H16.8289C16.4151 30.0093 16.0796 30.3433 16.0796 30.7554V33.9323C16.0796 34.3444 16.4151 34.6784 16.8289 34.6784H19.8346V44.2089C19.3394 43.8971 18.7534 43.7158 18.1253 43.7158C16.5888 43.7158 15.3011 44.797 14.9893 46.2355C13.763 46.4991 12.7952 47.4627 12.5307 48.6835C11.0859 48.9939 10 50.2761 10 51.8058C10 53.5671 11.4391 55 13.2079 55H20.5838H30.8053H39.1946H49.4162H56.7921C58.5609 55 60 53.5672 60 51.8058C60.0002 50.2761 58.9143 48.9939 57.4695 48.6835ZM13.2079 53.5078C12.2654 53.5078 11.4986 52.7444 11.4986 51.8058C11.4986 50.8674 12.2654 50.104 13.2079 50.104C13.6217 50.104 13.9572 49.77 13.9572 49.3579C13.9572 48.4195 14.724 47.656 15.6665 47.656C16.0803 47.656 16.4158 47.322 16.4158 46.9099C16.4158 45.9714 17.1826 45.2079 18.1251 45.2079C19.0676 45.2079 19.8344 45.9714 19.8344 46.9099V53.5079H13.2079V53.5078ZM45.5036 18.7462H45.5169C45.8529 18.7484 46.1728 18.8293 46.4673 18.9865C46.6593 19.0889 46.8864 19.1031 47.0897 19.0255C47.293 18.9479 47.4524 18.786 47.5262 18.5821C47.9791 17.3321 49.1802 16.4922 50.5153 16.4922C51.8504 16.4922 53.0515 17.3321 53.5044 18.582C53.5782 18.786 53.7376 18.9479 53.9409 19.0255C54.1442 19.1032 54.3714 19.0888 54.5633 18.9865C54.8579 18.8293 55.1776 18.7484 55.5138 18.7462H55.527C56.6308 18.7462 57.548 19.6392 57.5721 20.7392L57.5724 20.7625C57.5741 20.9386 57.505 21.106 57.3776 21.2339C57.244 21.3683 57.0657 21.4422 56.8758 21.4422H49.463V21.4251C49.463 21.0131 49.1276 20.679 48.7137 20.679H43.4606C43.5149 19.6079 44.4193 18.7462 45.5036 18.7462ZM40.0809 22.1711H42.8739H47.9645V22.1882C47.9645 22.1884 47.9645 22.1885 47.9645 22.1886V26.1324H40.081V22.1711H40.0809ZM38.4454 53.5078H31.5548V45.2493H38.4455V53.5078H38.4454ZM48.667 46.91H48.667V53.5079H39.9441V44.5033C39.9441 44.0913 39.6085 43.7573 39.1947 43.7573H30.8054C30.3916 43.7573 30.056 44.0913 30.056 44.5033V53.5079H21.3332V46.91V34.6785H48.667V46.91ZM20.5839 33.1863H17.5783V31.5016H52.4221V33.1863H49.4165H20.5839ZM56.7923 53.5078H50.1657V46.9099C50.1657 45.9714 50.9325 45.2079 51.875 45.2079C52.8175 45.2079 53.5843 45.9714 53.5843 46.9099C53.5843 47.322 53.9198 47.656 54.3336 47.656C55.2761 47.656 56.0429 48.4195 56.0429 49.3579C56.0429 49.77 56.3784 50.104 56.7922 50.104C57.7348 50.104 58.5015 50.8674 58.5015 51.8058C58.5016 52.7444 57.7348 53.5078 56.7923 53.5078Z" fill="#171A27"/>
<path d="M31.8379 35.8296H23.7577C23.344 35.8296 23.0084 36.1636 23.0084 36.5757V41.9245C23.0084 42.3366 23.344 42.6706 23.7577 42.6706H31.8379C32.2517 42.6706 32.5873 42.3366 32.5873 41.9245V36.5757C32.5873 36.1636 32.2517 35.8296 31.8379 35.8296ZM27.0485 41.1785H24.507V37.3218H27.0485V41.1785ZM31.0886 41.1785H28.5471V37.3218H31.0886V41.1785Z" fill="#171A27"/>
</svg>
