<svg width="64" height="66" viewBox="0 0 64 66" fill="none" xmlns="http://www.w3.org/2000/svg">
<path fill-rule="evenodd" clip-rule="evenodd" d="M41 11H5V61H55V30H60V61V66H55H5H0V61V11V6H5H41V11Z" fill="#FF9781"/>
<path d="M62.736 20.304V24H47.924V21.06L55.484 13.92C56.2867 13.1547 56.828 12.5013 57.108 11.96C57.388 11.4 57.528 10.8493 57.528 10.308C57.528 9.524 57.2573 8.92667 56.716 8.516C56.1933 8.08667 55.4187 7.872 54.392 7.872C53.5333 7.872 52.7587 8.04 52.068 8.376C51.3773 8.69333 50.7987 9.17867 50.332 9.832L47.028 7.704C47.7933 6.56533 48.848 5.67867 50.192 5.044C51.536 4.39067 53.076 4.064 54.812 4.064C56.268 4.064 57.5373 4.30667 58.62 4.792C59.7213 5.25867 60.5707 5.93067 61.168 6.808C61.784 7.66667 62.092 8.684 62.092 9.86C62.092 10.924 61.868 11.9227 61.42 12.856C60.972 13.7893 60.104 14.8533 58.816 16.048L54.308 20.304H62.736Z" fill="#FF9781"/>
<path d="M30.5886 27.532C28.6767 27.532 27.1206 28.9487 27.1206 30.6893C27.1206 32.4298 28.6767 33.8466 30.5886 33.8466C32.5004 33.8466 34.0566 32.4298 34.0566 30.6893C34.0566 28.9487 32.5004 27.532 30.5886 27.532ZM30.5886 32.9445C29.2227 32.9445 28.1115 31.9328 28.1115 30.6893C28.1115 29.4457 29.2227 28.4341 30.5886 28.4341C31.9545 28.4341 33.0657 29.4457 33.0657 30.6893C33.0657 31.9328 31.9545 32.9445 30.5886 32.9445Z" fill="#061229"/>
<path d="M37.2189 24.653C35.4245 23.0193 33.0385 22.1195 30.501 22.1195C27.9629 22.1195 25.5774 23.0193 23.783 24.653C20.4622 27.6758 20.0495 33.3634 22.8893 36.8093L30.501 46.8169L38.1013 36.8233C40.9524 33.3634 40.5397 27.6758 37.2189 24.653ZM37.2977 36.296L30.501 45.232L23.6933 36.282C21.1176 33.1555 21.4867 28.0191 24.484 25.2907C26.0912 23.8276 28.228 23.0216 30.501 23.0216C32.774 23.0216 34.9107 23.8276 36.5184 25.2907C39.5157 28.0191 39.8848 33.1555 37.2977 36.296Z" fill="#061229"/>
</svg>
