<svg width="70" height="70" viewBox="0 0 70 70" fill="none" xmlns="http://www.w3.org/2000/svg">
<rect x="2.5" y="2.5" width="65" height="65" stroke="#FF9781" stroke-width="5"/>
<mask id="path-2-inside-1" fill="white">
<path d="M57.8747 18.3652C57.871 17.9451 57.6961 17.5436 57.3884 17.2491L56.6607 16.5523C55.6151 15.5513 54.2317 15 52.7654 15C51.2639 15 49.8571 15.5739 48.8045 16.6156L48.1864 17.2274C47.7503 17.6589 47.1677 17.8967 46.5456 17.8967C45.9385 17.8967 45.3655 17.6684 44.9324 17.2538L44.3976 16.7415C43.352 15.7405 41.9686 15.1893 40.5023 15.1893C39.0008 15.1893 37.594 15.7632 36.541 16.8051L36.2348 17.1084C35.7987 17.54 35.2162 17.7778 34.5941 17.7778C33.987 17.7778 33.414 17.5495 32.9811 17.135L32.742 16.9059C31.6964 15.9049 30.313 15.3536 28.8467 15.3536C27.3452 15.3536 25.9384 15.9275 24.8856 16.9694C24.4495 17.401 23.8669 17.6388 23.2449 17.6388C22.6378 17.6388 22.0648 17.4105 21.6299 16.9939L21.5937 16.9593C20.5481 15.9581 19.1647 15.4066 17.6984 15.4066C16.1969 15.4066 14.7901 15.9807 13.7378 17.0223L13.4676 17.2894C13.1647 17.5896 12.9966 17.9941 13.0001 18.4144L13.1276 33.3397C13.1771 39.1409 15.5354 44.5852 19.7681 48.6694C23.9982 52.7511 29.6063 54.9996 35.5594 55L35.7497 54.9994C41.7427 54.951 47.3573 52.6335 51.5597 48.4738C55.762 44.3142 58.0489 38.8106 57.9992 32.9766L57.8747 18.3652ZM27.3587 21.8774C27.7265 21.5135 28.2177 21.3107 28.7419 21.3067C29.8311 21.3067 30.7114 22.1567 30.72 23.2016C30.7246 23.7113 30.5245 24.1927 30.1568 24.5566C29.7892 24.9207 29.298 25.1235 28.7736 25.1275C28.7692 25.1275 28.7621 25.1275 28.7577 25.1275C27.6844 25.1275 26.8041 24.2776 26.7954 23.2326C26.7909 22.723 26.9909 22.2412 27.3587 21.8774ZM22.7536 31.328C21.2155 31.328 19.9538 30.1097 19.9412 28.6125C19.9349 27.8812 20.2216 27.1914 20.7484 26.6701C21.2752 26.1484 21.9793 25.8579 22.7306 25.852C22.735 25.852 22.7495 25.852 22.7539 25.852C24.2918 25.852 25.5535 27.0701 25.5661 28.5673C25.5789 30.0767 24.3278 31.3153 22.7771 31.328C22.7725 31.328 22.7582 31.328 22.7536 31.328ZM48.6466 42.1935C48.6468 42.2258 48.647 42.2579 48.6418 42.289C48.6388 42.3076 48.632 42.3247 48.627 42.3427C48.6195 42.3699 48.6121 42.3969 48.6004 42.4227C48.5923 42.4404 48.5819 42.4567 48.5722 42.4736C48.5585 42.4971 48.5448 42.5199 48.5281 42.541C48.5157 42.5568 48.5019 42.571 48.488 42.5853C48.4695 42.6044 48.4504 42.6225 48.4292 42.6388C48.4129 42.6515 48.3962 42.6627 48.3786 42.6736C48.356 42.6878 48.3326 42.7 48.3079 42.711C48.2886 42.7197 48.2695 42.7271 48.2491 42.7334C48.223 42.7419 48.1961 42.7471 48.1686 42.7518C48.1471 42.7554 48.1261 42.7588 48.1037 42.7598C48.0939 42.7602 48.0848 42.7634 48.0751 42.7634C48.0397 42.7634 48.0037 42.7602 47.967 42.7537C47.7136 42.7083 47.4313 42.6221 47.146 42.4681C47.0034 42.391 46.86 42.297 46.719 42.1828C46.5782 42.0683 46.4397 41.9337 46.307 41.7751C46.2304 41.6834 46.157 41.5888 46.0874 41.4918C45.8782 41.2014 45.6994 40.8909 45.5482 40.5838C45.4154 40.3143 45.3056 40.049 45.2128 39.7999C45.188 39.7336 45.1644 39.6688 45.1422 39.6052C45.1212 39.5448 45.0997 39.4837 45.0808 39.4265C45.0654 39.3796 45.044 39.3369 45.0199 39.2966C45.0138 39.2865 45.0075 39.2765 45.001 39.2668C44.9763 39.2303 44.9491 39.1956 44.9183 39.1656C44.9168 39.1642 44.9157 39.1623 44.9142 39.161C44.8814 39.1297 44.845 39.1033 44.807 39.0797C44.7975 39.0738 44.7877 39.0681 44.7777 39.0626C44.7417 39.0425 44.7042 39.0252 44.6649 39.0121C44.6612 39.0108 44.658 39.0089 44.6543 39.0079C44.6117 38.9946 44.5677 38.9863 44.5232 38.9815C44.5122 38.9802 44.5009 38.9796 44.4896 38.9789C44.4479 38.9764 44.4061 38.9768 44.3642 38.9823C44.3605 38.9827 44.3568 38.9825 44.3531 38.9831C44.3082 38.9897 44.2637 39.0022 44.2201 39.0182C44.2097 39.022 44.1993 39.0264 44.1889 39.0307C44.145 39.0493 44.1019 39.071 44.0611 39.1H44.0608C43.5234 39.4806 42.9031 39.8815 42.2083 40.2689C42.0925 40.3335 41.9747 40.3975 41.8549 40.4613C41.6151 40.5887 41.3673 40.7137 41.1117 40.8356C40.6006 41.0791 40.0581 41.3093 39.4875 41.5157C39.0594 41.6705 38.6153 41.8123 38.1561 41.9367C37.8506 42.0195 37.64 42.2734 37.6109 42.5598C37.6013 42.6553 37.6118 42.7543 37.6458 42.8517C37.7111 43.0395 37.7656 43.2216 37.8153 43.399C37.8444 43.5027 37.8734 43.6068 37.8977 43.7044C37.9066 43.7399 37.9125 43.7754 37.9164 43.8104C37.9177 43.8218 37.9177 43.833 37.9186 43.8444C37.9203 43.8679 37.9216 43.8913 37.9212 43.9146C37.9209 43.9279 37.9196 43.9408 37.9188 43.9539C37.9173 43.9748 37.9155 43.9955 37.9125 44.016C37.9105 44.0293 37.9079 44.0426 37.9051 44.0559C37.9012 44.0755 37.8964 44.095 37.891 44.1142C37.8873 44.1271 37.8834 44.1397 37.8793 44.1524C37.8728 44.1714 37.8654 44.19 37.8576 44.2086C37.8526 44.2204 37.8476 44.2323 37.842 44.2439C37.8328 44.2629 37.8224 44.281 37.812 44.2992C37.8062 44.3094 37.8007 44.3197 37.7944 44.3294C37.781 44.3505 37.7662 44.3704 37.7511 44.39C37.7463 44.3962 37.7422 44.4027 37.7374 44.4086C37.7166 44.434 37.6944 44.4581 37.6708 44.4809C37.6658 44.4857 37.6601 44.4897 37.6552 44.4944C37.6361 44.5119 37.6165 44.529 37.5959 44.5447C37.587 44.5516 37.5775 44.5575 37.5684 44.5641C37.5506 44.5765 37.5328 44.5888 37.5141 44.5998C37.5033 44.6063 37.4922 44.612 37.4811 44.6179C37.4629 44.6277 37.4445 44.637 37.4256 44.6454C37.4137 44.6507 37.4015 44.6558 37.3894 44.6604C37.3703 44.668 37.3507 44.6748 37.331 44.6809C37.3184 44.6849 37.3058 44.6887 37.293 44.6919C37.2724 44.6972 37.2514 44.7014 37.2303 44.7052C37.2177 44.7075 37.2054 44.71 37.1926 44.7117C37.1693 44.7149 37.1457 44.7164 37.1218 44.7174C37.1108 44.7181 37.0997 44.7193 37.0886 44.7193C37.086 44.7193 37.0834 44.7198 37.0806 44.7198C37.0587 44.7198 37.0361 44.7174 37.014 44.7155C37.0023 44.7147 36.9908 44.7149 36.9791 44.7134C36.9433 44.7092 36.9072 44.7027 36.8712 44.6938C36.8701 44.6936 36.8691 44.6936 36.8678 44.6931C36.2563 44.5398 35.4474 44.2868 34.4986 43.8702C34.363 43.8107 34.2246 43.7477 34.0836 43.6814C33.3372 43.3303 32.7806 42.8659 32.3671 42.3914C31.5467 42.3118 30.7715 42.1798 30.0442 42.011C29.5592 41.8987 29.0958 41.77 28.6545 41.6298C27.7718 41.3491 26.9781 41.0223 26.2799 40.6858C25.9931 40.5477 25.7266 40.4083 25.4725 40.2695C25.2627 40.155 25.0601 40.041 24.8733 39.9292C24.3224 39.5999 23.8724 39.2892 23.53 39.0343C23.224 38.8066 23.0654 38.4591 23.0715 38.1078C23.0717 38.1009 23.0737 38.0941 23.0739 38.0871C23.078 37.9697 23.1025 37.8529 23.1442 37.7395C23.1748 37.6558 23.2123 37.5737 23.264 37.4963C23.4517 37.2152 23.6923 36.8834 23.9904 36.5241C25.2825 34.9669 27.654 32.8944 31.4617 32.1976C31.461 32.1737 31.4604 32.1473 31.4599 32.119V32.1171C31.4593 32.0592 31.4593 31.9927 31.4612 31.9186C31.4632 31.8442 31.4666 31.7623 31.4727 31.6733C31.4788 31.5844 31.4873 31.4892 31.4988 31.388C31.5046 31.3373 31.5111 31.2853 31.5187 31.2321C31.5337 31.1254 31.5523 31.0135 31.5753 30.8975C31.6096 30.7235 31.6539 30.5399 31.7101 30.3502C31.7665 30.1608 31.8351 29.9652 31.9186 29.7668C31.9485 29.6957 31.9796 29.6268 32.0117 29.5605C32.0438 29.4939 32.0768 29.4297 32.1106 29.3678C32.2796 29.0584 32.4678 28.8056 32.6498 28.6026C32.6862 28.562 32.7223 28.5234 32.7581 28.4868C32.7984 28.4454 32.8425 28.4095 32.8889 28.3787C32.9045 28.3683 32.9217 28.3618 32.9379 28.3527C32.9698 28.3347 33.0015 28.3162 33.0351 28.3026C33.0555 28.2944 33.077 28.2904 33.0978 28.284C33.1289 28.2745 33.1597 28.264 33.1914 28.2583C33.2141 28.2541 33.2371 28.2538 33.2604 28.2517C33.2864 28.2492 33.3124 28.2441 33.3387 28.2441C33.343 28.2441 33.3474 28.2454 33.3517 28.2454C33.384 28.2458 33.4155 28.2511 33.4476 28.2553C33.4713 28.2585 33.4951 28.2595 33.5186 28.2646C33.5515 28.272 33.583 28.2843 33.6149 28.2957C33.6362 28.3033 33.6581 28.3083 33.6787 28.3176C33.713 28.3333 33.7446 28.3546 33.7768 28.3751C33.793 28.3854 33.8104 28.393 33.826 28.4049C33.8718 28.4393 33.9143 28.479 33.9527 28.5242C33.9532 28.5248 33.9538 28.5251 33.9542 28.5257C34.015 28.5977 34.0816 28.6731 34.1536 28.7504C34.2255 28.8273 34.3027 28.9061 34.3854 28.9849C34.3858 28.9853 34.3862 28.9857 34.3867 28.9862C34.4281 29.0259 34.4711 29.0654 34.5153 29.1051C34.5796 29.1623 34.6475 29.2191 34.7171 29.2753C34.7915 29.3353 34.8679 29.3942 34.9482 29.4513C35.0521 29.5248 35.1608 29.5953 35.2745 29.661C35.6154 29.8583 35.9994 30.0131 36.4214 30.0816C37.2609 30.2176 38.0806 30.297 38.7177 30.3428C38.9301 30.358 39.1221 30.3697 39.2879 30.3785C39.5502 30.3923 39.788 30.5061 39.959 30.6852C40.0616 30.7927 40.1399 30.9237 40.1853 31.0707C40.2384 31.2433 40.2905 31.4359 40.3296 31.6315C40.3647 31.8075 40.3847 32.009 40.3955 32.2084C40.4131 32.5337 40.4057 32.8526 40.3979 33.0431C40.5075 33.0841 40.6127 33.1274 40.7195 33.1699C41.33 33.413 41.8946 33.6774 42.4064 33.9526C43.0079 34.276 43.5412 34.6121 44.006 34.9399C44.0489 34.9703 44.0945 34.9927 44.1405 35.0117C44.1502 35.0157 44.16 35.02 44.17 35.0236C44.2151 35.0396 44.2609 35.0514 44.3071 35.0576C44.3149 35.0586 44.3225 35.0584 44.3303 35.0592C44.3709 35.0633 44.4113 35.0631 44.4514 35.0595C44.4622 35.0586 44.4733 35.0582 44.4842 35.0567C44.5299 35.0506 44.5749 35.0402 44.6183 35.0252C44.6267 35.0223 44.6345 35.0181 44.643 35.0149C44.679 35.0007 44.7135 34.9834 44.7465 34.9634C44.7567 34.9572 44.7669 34.9511 44.7766 34.9446C44.8146 34.9184 44.8508 34.8894 44.8827 34.8554C44.8866 34.8512 44.8899 34.8463 44.8938 34.8419C44.9216 34.8111 44.9459 34.7766 44.9674 34.7401C44.9739 34.7291 44.9802 34.7181 44.986 34.7065C45.0082 34.663 45.0277 34.6174 45.0398 34.5671C45.2063 33.891 45.4918 33.049 45.9722 32.3448C46.4387 31.6609 47.0347 31.3495 47.5316 31.211C47.5851 31.196 47.6381 31.189 47.6895 31.1888C47.6906 31.1888 47.6917 31.1886 47.6928 31.1886C47.6932 31.1886 47.6934 31.1886 47.6938 31.1886C47.7427 31.1886 47.79 31.1955 47.8355 31.2072C47.8505 31.211 47.864 31.2177 47.8785 31.2226C47.9084 31.2327 47.9379 31.2437 47.9655 31.2583C47.9813 31.2669 47.9954 31.2771 48.0104 31.287C48.0341 31.3026 48.0568 31.3187 48.0781 31.3375C48.092 31.35 48.1046 31.3631 48.1172 31.3766C48.136 31.3968 48.153 31.418 48.1688 31.4406C48.1794 31.4558 48.1894 31.471 48.1985 31.4872C48.2122 31.512 48.223 31.5375 48.233 31.5641C48.2393 31.581 48.246 31.5971 48.2508 31.6146C48.2588 31.6448 48.2623 31.6761 48.2649 31.7078C48.2662 31.7234 48.2697 31.7384 48.2695 31.7544C48.2695 31.8028 48.2641 31.8522 48.2504 31.9025C48.1562 32.247 48.0655 32.6655 48.0369 33.0742C48.0273 33.2104 48.0245 33.3456 48.0308 33.4766C48.0434 33.7383 48.0523 33.9921 48.0523 34.2346C48.0525 34.9621 47.974 35.5875 47.68 36.0178C47.5789 36.1656 47.4469 36.3046 47.3044 36.4309C47.2126 36.5123 47.1438 36.6086 47.0983 36.7123C47.0527 36.816 47.0303 36.9273 47.0312 37.0382C47.0329 37.2602 47.1271 37.4813 47.3139 37.6406C47.4281 37.7378 47.5391 37.8461 47.6385 37.9646C47.7125 38.0527 47.7739 38.1547 47.8303 38.2627C47.9017 38.3991 47.9629 38.5472 48.0111 38.7113C48.1258 39.1029 48.182 39.5661 48.2174 40.0703C48.2263 40.1964 48.2339 40.325 48.2406 40.4556C48.261 40.8472 48.3656 41.2679 48.4884 41.6414C48.5294 41.7658 48.5724 41.8849 48.6149 41.996C48.634 42.0457 48.6446 42.0953 48.6494 42.1443C48.649 42.1616 48.6464 42.1773 48.6466 42.1935Z"/>
</mask>
<path d="M57.8747 18.3652C57.871 17.9451 57.6961 17.5436 57.3884 17.2491L56.6607 16.5523C55.6151 15.5513 54.2317 15 52.7654 15C51.2639 15 49.8571 15.5739 48.8045 16.6156L48.1864 17.2274C47.7503 17.6589 47.1677 17.8967 46.5456 17.8967C45.9385 17.8967 45.3655 17.6684 44.9324 17.2538L44.3976 16.7415C43.352 15.7405 41.9686 15.1893 40.5023 15.1893C39.0008 15.1893 37.594 15.7632 36.541 16.8051L36.2348 17.1084C35.7987 17.54 35.2162 17.7778 34.5941 17.7778C33.987 17.7778 33.414 17.5495 32.9811 17.135L32.742 16.9059C31.6964 15.9049 30.313 15.3536 28.8467 15.3536C27.3452 15.3536 25.9384 15.9275 24.8856 16.9694C24.4495 17.401 23.8669 17.6388 23.2449 17.6388C22.6378 17.6388 22.0648 17.4105 21.6299 16.9939L21.5937 16.9593C20.5481 15.9581 19.1647 15.4066 17.6984 15.4066C16.1969 15.4066 14.7901 15.9807 13.7378 17.0223L13.4676 17.2894C13.1647 17.5896 12.9966 17.9941 13.0001 18.4144L13.1276 33.3397C13.1771 39.1409 15.5354 44.5852 19.7681 48.6694C23.9982 52.7511 29.6063 54.9996 35.5594 55L35.7497 54.9994C41.7427 54.951 47.3573 52.6335 51.5597 48.4738C55.762 44.3142 58.0489 38.8106 57.9992 32.9766L57.8747 18.3652ZM27.3587 21.8774C27.7265 21.5135 28.2177 21.3107 28.7419 21.3067C29.8311 21.3067 30.7114 22.1567 30.72 23.2016C30.7246 23.7113 30.5245 24.1927 30.1568 24.5566C29.7892 24.9207 29.298 25.1235 28.7736 25.1275C28.7692 25.1275 28.7621 25.1275 28.7577 25.1275C27.6844 25.1275 26.8041 24.2776 26.7954 23.2326C26.7909 22.723 26.9909 22.2412 27.3587 21.8774ZM22.7536 31.328C21.2155 31.328 19.9538 30.1097 19.9412 28.6125C19.9349 27.8812 20.2216 27.1914 20.7484 26.6701C21.2752 26.1484 21.9793 25.8579 22.7306 25.852C22.735 25.852 22.7495 25.852 22.7539 25.852C24.2918 25.852 25.5535 27.0701 25.5661 28.5673C25.5789 30.0767 24.3278 31.3153 22.7771 31.328C22.7725 31.328 22.7582 31.328 22.7536 31.328ZM48.6466 42.1935C48.6468 42.2258 48.647 42.2579 48.6418 42.289C48.6388 42.3076 48.632 42.3247 48.627 42.3427C48.6195 42.3699 48.6121 42.3969 48.6004 42.4227C48.5923 42.4404 48.5819 42.4567 48.5722 42.4736C48.5585 42.4971 48.5448 42.5199 48.5281 42.541C48.5157 42.5568 48.5019 42.571 48.488 42.5853C48.4695 42.6044 48.4504 42.6225 48.4292 42.6388C48.4129 42.6515 48.3962 42.6627 48.3786 42.6736C48.356 42.6878 48.3326 42.7 48.3079 42.711C48.2886 42.7197 48.2695 42.7271 48.2491 42.7334C48.223 42.7419 48.1961 42.7471 48.1686 42.7518C48.1471 42.7554 48.1261 42.7588 48.1037 42.7598C48.0939 42.7602 48.0848 42.7634 48.0751 42.7634C48.0397 42.7634 48.0037 42.7602 47.967 42.7537C47.7136 42.7083 47.4313 42.6221 47.146 42.4681C47.0034 42.391 46.86 42.297 46.719 42.1828C46.5782 42.0683 46.4397 41.9337 46.307 41.7751C46.2304 41.6834 46.157 41.5888 46.0874 41.4918C45.8782 41.2014 45.6994 40.8909 45.5482 40.5838C45.4154 40.3143 45.3056 40.049 45.2128 39.7999C45.188 39.7336 45.1644 39.6688 45.1422 39.6052C45.1212 39.5448 45.0997 39.4837 45.0808 39.4265C45.0654 39.3796 45.044 39.3369 45.0199 39.2966C45.0138 39.2865 45.0075 39.2765 45.001 39.2668C44.9763 39.2303 44.9491 39.1956 44.9183 39.1656C44.9168 39.1642 44.9157 39.1623 44.9142 39.161C44.8814 39.1297 44.845 39.1033 44.807 39.0797C44.7975 39.0738 44.7877 39.0681 44.7777 39.0626C44.7417 39.0425 44.7042 39.0252 44.6649 39.0121C44.6612 39.0108 44.658 39.0089 44.6543 39.0079C44.6117 38.9946 44.5677 38.9863 44.5232 38.9815C44.5122 38.9802 44.5009 38.9796 44.4896 38.9789C44.4479 38.9764 44.4061 38.9768 44.3642 38.9823C44.3605 38.9827 44.3568 38.9825 44.3531 38.9831C44.3082 38.9897 44.2637 39.0022 44.2201 39.0182C44.2097 39.022 44.1993 39.0264 44.1889 39.0307C44.145 39.0493 44.1019 39.071 44.0611 39.1H44.0608C43.5234 39.4806 42.9031 39.8815 42.2083 40.2689C42.0925 40.3335 41.9747 40.3975 41.8549 40.4613C41.6151 40.5887 41.3673 40.7137 41.1117 40.8356C40.6006 41.0791 40.0581 41.3093 39.4875 41.5157C39.0594 41.6705 38.6153 41.8123 38.1561 41.9367C37.8506 42.0195 37.64 42.2734 37.6109 42.5598C37.6013 42.6553 37.6118 42.7543 37.6458 42.8517C37.7111 43.0395 37.7656 43.2216 37.8153 43.399C37.8444 43.5027 37.8734 43.6068 37.8977 43.7044C37.9066 43.7399 37.9125 43.7754 37.9164 43.8104C37.9177 43.8218 37.9177 43.833 37.9186 43.8444C37.9203 43.8679 37.9216 43.8913 37.9212 43.9146C37.9209 43.9279 37.9196 43.9408 37.9188 43.9539C37.9173 43.9748 37.9155 43.9955 37.9125 44.016C37.9105 44.0293 37.9079 44.0426 37.9051 44.0559C37.9012 44.0755 37.8964 44.095 37.891 44.1142C37.8873 44.1271 37.8834 44.1397 37.8793 44.1524C37.8728 44.1714 37.8654 44.19 37.8576 44.2086C37.8526 44.2204 37.8476 44.2323 37.842 44.2439C37.8328 44.2629 37.8224 44.281 37.812 44.2992C37.8062 44.3094 37.8007 44.3197 37.7944 44.3294C37.781 44.3505 37.7662 44.3704 37.7511 44.39C37.7463 44.3962 37.7422 44.4027 37.7374 44.4086C37.7166 44.434 37.6944 44.4581 37.6708 44.4809C37.6658 44.4857 37.6601 44.4897 37.6552 44.4944C37.6361 44.5119 37.6165 44.529 37.5959 44.5447C37.587 44.5516 37.5775 44.5575 37.5684 44.5641C37.5506 44.5765 37.5328 44.5888 37.5141 44.5998C37.5033 44.6063 37.4922 44.612 37.4811 44.6179C37.4629 44.6277 37.4445 44.637 37.4256 44.6454C37.4137 44.6507 37.4015 44.6558 37.3894 44.6604C37.3703 44.668 37.3507 44.6748 37.331 44.6809C37.3184 44.6849 37.3058 44.6887 37.293 44.6919C37.2724 44.6972 37.2514 44.7014 37.2303 44.7052C37.2177 44.7075 37.2054 44.71 37.1926 44.7117C37.1693 44.7149 37.1457 44.7164 37.1218 44.7174C37.1108 44.7181 37.0997 44.7193 37.0886 44.7193C37.086 44.7193 37.0834 44.7198 37.0806 44.7198C37.0587 44.7198 37.0361 44.7174 37.014 44.7155C37.0023 44.7147 36.9908 44.7149 36.9791 44.7134C36.9433 44.7092 36.9072 44.7027 36.8712 44.6938C36.8701 44.6936 36.8691 44.6936 36.8678 44.6931C36.2563 44.5398 35.4474 44.2868 34.4986 43.8702C34.363 43.8107 34.2246 43.7477 34.0836 43.6814C33.3372 43.3303 32.7806 42.8659 32.3671 42.3914C31.5467 42.3118 30.7715 42.1798 30.0442 42.011C29.5592 41.8987 29.0958 41.77 28.6545 41.6298C27.7718 41.3491 26.9781 41.0223 26.2799 40.6858C25.9931 40.5477 25.7266 40.4083 25.4725 40.2695C25.2627 40.155 25.0601 40.041 24.8733 39.9292C24.3224 39.5999 23.8724 39.2892 23.53 39.0343C23.224 38.8066 23.0654 38.4591 23.0715 38.1078C23.0717 38.1009 23.0737 38.0941 23.0739 38.0871C23.078 37.9697 23.1025 37.8529 23.1442 37.7395C23.1748 37.6558 23.2123 37.5737 23.264 37.4963C23.4517 37.2152 23.6923 36.8834 23.9904 36.5241C25.2825 34.9669 27.654 32.8944 31.4617 32.1976C31.461 32.1737 31.4604 32.1473 31.4599 32.119V32.1171C31.4593 32.0592 31.4593 31.9927 31.4612 31.9186C31.4632 31.8442 31.4666 31.7623 31.4727 31.6733C31.4788 31.5844 31.4873 31.4892 31.4988 31.388C31.5046 31.3373 31.5111 31.2853 31.5187 31.2321C31.5337 31.1254 31.5523 31.0135 31.5753 30.8975C31.6096 30.7235 31.6539 30.5399 31.7101 30.3502C31.7665 30.1608 31.8351 29.9652 31.9186 29.7668C31.9485 29.6957 31.9796 29.6268 32.0117 29.5605C32.0438 29.4939 32.0768 29.4297 32.1106 29.3678C32.2796 29.0584 32.4678 28.8056 32.6498 28.6026C32.6862 28.562 32.7223 28.5234 32.7581 28.4868C32.7984 28.4454 32.8425 28.4095 32.8889 28.3787C32.9045 28.3683 32.9217 28.3618 32.9379 28.3527C32.9698 28.3347 33.0015 28.3162 33.0351 28.3026C33.0555 28.2944 33.077 28.2904 33.0978 28.284C33.1289 28.2745 33.1597 28.264 33.1914 28.2583C33.2141 28.2541 33.2371 28.2538 33.2604 28.2517C33.2864 28.2492 33.3124 28.2441 33.3387 28.2441C33.343 28.2441 33.3474 28.2454 33.3517 28.2454C33.384 28.2458 33.4155 28.2511 33.4476 28.2553C33.4713 28.2585 33.4951 28.2595 33.5186 28.2646C33.5515 28.272 33.583 28.2843 33.6149 28.2957C33.6362 28.3033 33.6581 28.3083 33.6787 28.3176C33.713 28.3333 33.7446 28.3546 33.7768 28.3751C33.793 28.3854 33.8104 28.393 33.826 28.4049C33.8718 28.4393 33.9143 28.479 33.9527 28.5242C33.9532 28.5248 33.9538 28.5251 33.9542 28.5257C34.015 28.5977 34.0816 28.6731 34.1536 28.7504C34.2255 28.8273 34.3027 28.9061 34.3854 28.9849C34.3858 28.9853 34.3862 28.9857 34.3867 28.9862C34.4281 29.0259 34.4711 29.0654 34.5153 29.1051C34.5796 29.1623 34.6475 29.2191 34.7171 29.2753C34.7915 29.3353 34.8679 29.3942 34.9482 29.4513C35.0521 29.5248 35.1608 29.5953 35.2745 29.661C35.6154 29.8583 35.9994 30.0131 36.4214 30.0816C37.2609 30.2176 38.0806 30.297 38.7177 30.3428C38.9301 30.358 39.1221 30.3697 39.2879 30.3785C39.5502 30.3923 39.788 30.5061 39.959 30.6852C40.0616 30.7927 40.1399 30.9237 40.1853 31.0707C40.2384 31.2433 40.2905 31.4359 40.3296 31.6315C40.3647 31.8075 40.3847 32.009 40.3955 32.2084C40.4131 32.5337 40.4057 32.8526 40.3979 33.0431C40.5075 33.0841 40.6127 33.1274 40.7195 33.1699C41.33 33.413 41.8946 33.6774 42.4064 33.9526C43.0079 34.276 43.5412 34.6121 44.006 34.9399C44.0489 34.9703 44.0945 34.9927 44.1405 35.0117C44.1502 35.0157 44.16 35.02 44.17 35.0236C44.2151 35.0396 44.2609 35.0514 44.3071 35.0576C44.3149 35.0586 44.3225 35.0584 44.3303 35.0592C44.3709 35.0633 44.4113 35.0631 44.4514 35.0595C44.4622 35.0586 44.4733 35.0582 44.4842 35.0567C44.5299 35.0506 44.5749 35.0402 44.6183 35.0252C44.6267 35.0223 44.6345 35.0181 44.643 35.0149C44.679 35.0007 44.7135 34.9834 44.7465 34.9634C44.7567 34.9572 44.7669 34.9511 44.7766 34.9446C44.8146 34.9184 44.8508 34.8894 44.8827 34.8554C44.8866 34.8512 44.8899 34.8463 44.8938 34.8419C44.9216 34.8111 44.9459 34.7766 44.9674 34.7401C44.9739 34.7291 44.9802 34.7181 44.986 34.7065C45.0082 34.663 45.0277 34.6174 45.0398 34.5671C45.2063 33.891 45.4918 33.049 45.9722 32.3448C46.4387 31.6609 47.0347 31.3495 47.5316 31.211C47.5851 31.196 47.6381 31.189 47.6895 31.1888C47.6906 31.1888 47.6917 31.1886 47.6928 31.1886C47.6932 31.1886 47.6934 31.1886 47.6938 31.1886C47.7427 31.1886 47.79 31.1955 47.8355 31.2072C47.8505 31.211 47.864 31.2177 47.8785 31.2226C47.9084 31.2327 47.9379 31.2437 47.9655 31.2583C47.9813 31.2669 47.9954 31.2771 48.0104 31.287C48.0341 31.3026 48.0568 31.3187 48.0781 31.3375C48.092 31.35 48.1046 31.3631 48.1172 31.3766C48.136 31.3968 48.153 31.418 48.1688 31.4406C48.1794 31.4558 48.1894 31.471 48.1985 31.4872C48.2122 31.512 48.223 31.5375 48.233 31.5641C48.2393 31.581 48.246 31.5971 48.2508 31.6146C48.2588 31.6448 48.2623 31.6761 48.2649 31.7078C48.2662 31.7234 48.2697 31.7384 48.2695 31.7544C48.2695 31.8028 48.2641 31.8522 48.2504 31.9025C48.1562 32.247 48.0655 32.6655 48.0369 33.0742C48.0273 33.2104 48.0245 33.3456 48.0308 33.4766C48.0434 33.7383 48.0523 33.9921 48.0523 34.2346C48.0525 34.9621 47.974 35.5875 47.68 36.0178C47.5789 36.1656 47.4469 36.3046 47.3044 36.4309C47.2126 36.5123 47.1438 36.6086 47.0983 36.7123C47.0527 36.816 47.0303 36.9273 47.0312 37.0382C47.0329 37.2602 47.1271 37.4813 47.3139 37.6406C47.4281 37.7378 47.5391 37.8461 47.6385 37.9646C47.7125 38.0527 47.7739 38.1547 47.8303 38.2627C47.9017 38.3991 47.9629 38.5472 48.0111 38.7113C48.1258 39.1029 48.182 39.5661 48.2174 40.0703C48.2263 40.1964 48.2339 40.325 48.2406 40.4556C48.261 40.8472 48.3656 41.2679 48.4884 41.6414C48.5294 41.7658 48.5724 41.8849 48.6149 41.996C48.634 42.0457 48.6446 42.0953 48.6494 42.1443C48.649 42.1616 48.6464 42.1773 48.6466 42.1935Z" stroke="#171A27" stroke-width="2" mask="url(#path-2-inside-1)"/>
</svg>
