<svg width="62" height="64" viewBox="0 0 62 64" fill="none" xmlns="http://www.w3.org/2000/svg">
<path fill-rule="evenodd" clip-rule="evenodd" d="M41 9H5V59H55V34H60V59V64H55H5H0V59V9V4H5H41V9Z" fill="#FF9781"/>
<path d="M59.652 4.4V24H55.116V8.04H51.196V4.4H59.652Z" fill="#FF9781"/>
<path d="M43.7975 27.1161L33.2634 21.1082C33.0757 21.0008 32.8569 20.9722 32.6475 21.0276C32.438 21.0831 32.263 21.216 32.1554 21.4011L31.4294 22.643C31.3268 22.6249 31.2214 22.6148 31.1136 22.6148H23.9514C23.7152 22.6148 23.5236 22.804 23.5236 23.0374C23.5236 23.2709 23.7152 23.46 23.9514 23.46H31.1136C31.6281 23.46 32.0467 23.8733 32.0467 24.3813V43.9308C32.0467 44.4388 31.6281 44.8521 31.1136 44.8521H18.4821C17.9676 44.8521 17.549 44.4388 17.549 43.9308V41.3781H18.6301C18.9678 41.3781 19.2426 41.1066 19.2426 40.773V39.6779C19.2426 39.3442 18.9678 39.0728 18.6301 39.0728H15.6125C15.2747 39.0729 15 39.3443 15 39.6779V40.773C15 41.1067 15.2747 41.3781 15.6125 41.3781H16.6934V43.9309C16.6934 44.9049 17.4958 45.6974 18.4821 45.6974H31.1136C32.0999 45.6974 32.9023 44.905 32.9023 43.9309V36.275L35.6235 37.8271C35.6909 37.8655 35.7644 37.8838 35.837 37.8838C35.9848 37.8838 36.1286 37.808 36.2078 37.6724C36.326 37.4703 36.2559 37.2118 36.0513 37.0952L32.9023 35.2991V33.9913L36.6245 36.1142C36.6919 36.1526 36.7654 36.1708 36.838 36.1708C36.9858 36.1708 37.1296 36.0951 37.2088 35.9595C37.327 35.7573 37.2569 35.4989 37.0523 35.3822L32.9023 33.0154V31.7076L37.6255 34.4018C37.6929 34.4402 37.7664 34.4585 37.8391 34.4585C37.9868 34.4585 38.1307 34.3827 38.2099 34.2471C38.328 34.045 38.2579 33.7865 38.0533 33.6698L32.9023 30.7316V29.4238L38.6265 32.6888C38.6939 32.7273 38.7674 32.7455 38.84 32.7455C38.9878 32.7455 39.1316 32.6697 39.2109 32.5342C39.329 32.332 39.2589 32.0736 39.0543 31.9569L32.9023 28.4479V24.3814C32.9023 23.817 32.6326 23.3141 32.2143 22.9905L32.8739 21.8621L43.3312 27.8262L34.2754 43.3211C34.0779 43.2339 33.8414 43.3065 33.7308 43.4958C33.6126 43.6978 33.6826 43.9563 33.8872 44.0731C34.0144 44.1457 34.1535 44.1802 34.291 44.1802C34.5713 44.1801 34.8447 44.0366 34.9952 43.7799L44.0948 28.2099C44.3171 27.8279 44.1839 27.3374 43.7975 27.1161ZM15.8556 39.9181H18.387V40.5329H15.8556V39.9181Z" fill="#061229"/>
<path d="M39.5804 27.6678L34.8881 24.9915C34.6834 24.8748 34.4218 24.944 34.3037 25.1462C34.1856 25.3483 34.2557 25.6068 34.4603 25.7235L39.1526 28.3997C39.22 28.4382 39.2936 28.4564 39.3661 28.4564C39.5139 28.4564 39.6577 28.3806 39.737 28.2451C39.8551 28.043 39.785 27.7845 39.5804 27.6678Z" fill="#061229"/>
<path d="M15.6125 27.5682H16.6934V30.7007C16.6934 30.9341 16.885 31.1233 17.1212 31.1233C17.3575 31.1233 17.549 30.9341 17.549 30.7007V27.5682H18.6301C18.9678 27.5682 19.2426 27.2968 19.2426 26.9631V25.868C19.2426 25.5343 18.9678 25.2629 18.6301 25.2629H17.549V24.3813C17.549 23.8733 17.9676 23.4601 18.4821 23.4601H22.2409C22.4771 23.4601 22.6686 23.2709 22.6686 23.0375C22.6686 22.804 22.4771 22.6149 22.2409 22.6149H18.4821C17.4958 22.6149 16.6934 23.4073 16.6934 24.3813V25.2629H15.6125C15.2747 25.2629 15 25.5343 15 25.868V26.9631C15 27.2968 15.2747 27.5682 15.6125 27.5682ZM15.8556 26.1081H18.387V26.723H15.8556V26.1081Z" fill="#061229"/>
<path d="M15.6125 34.4732H16.6935V37.812C16.6935 38.0455 16.885 38.2346 17.1213 38.2346C17.3575 38.2346 17.5491 38.0455 17.5491 37.812V34.4732H18.6301C18.9678 34.4732 19.2426 34.2018 19.2426 33.8682V32.7731C19.2426 32.4394 18.9679 32.168 18.6301 32.168H15.6125C15.2747 32.168 15 32.4394 15 32.7731V33.8682C15 34.2018 15.2747 34.4732 15.6125 34.4732ZM15.8556 33.0132H18.387V33.628H15.8556V33.0132Z" fill="#061229"/>
<path d="M20.9106 27.2416V29.4379C20.9106 29.8387 21.2407 30.1647 21.6463 30.1647H27.9491C28.3548 30.1647 28.6848 29.8387 28.6848 29.4379V27.2416C28.6848 26.8409 28.3548 26.5149 27.9491 26.5149H21.6463C21.2407 26.5149 20.9106 26.8409 20.9106 27.2416ZM21.7662 27.3601H27.8293V29.3195H21.7662V27.3601Z" fill="#061229"/>
</svg>
