<svg width="70" height="70" viewBox="0 0 70 70" fill="none" xmlns="http://www.w3.org/2000/svg">
<rect x="2.5" y="2.5" width="65" height="65" stroke="#FF9781" stroke-width="5"/>
<path d="M52.6562 28.75H54.2188C54.6502 28.75 55 28.4002 55 27.9688C55 27.5373 54.6502 27.1875 54.2188 27.1875H51.875C51.4435 27.1875 51.0938 27.5373 51.0938 27.9688V31.875H45.625V27.9688C45.625 27.5373 45.2752 27.1875 44.8438 27.1875H42.5C42.0685 27.1875 41.7188 27.5373 41.7188 27.9688C41.7188 28.4002 42.0685 28.75 42.5 28.75H44.0625V32.3216C42.6785 33.5834 40.7615 34.302 38.75 34.302C36.7385 34.302 34.8215 33.5834 33.4375 32.3216V28.2812H35C35.302 28.2812 35.577 28.1071 35.7062 27.8341C35.8353 27.5612 35.7956 27.2381 35.6041 27.0046L25.9948 15.2859C25.8464 15.1049 25.6247 15 25.3906 15C25.1566 15 24.9349 15.1049 24.7865 15.2859L15.1771 27.0046C14.9856 27.2381 14.9459 27.5612 15.0751 27.8341C15.2043 28.1072 15.4792 28.2812 15.7812 28.2812H17.3438V53.4375H15.7812C15.3498 53.4375 15 53.7873 15 54.2188C15 54.6502 15.3498 55 15.7812 55H20.4688C20.9002 55 21.25 54.6502 21.25 54.2188C21.25 53.7873 20.9002 53.4375 20.4688 53.4375H18.9062V42.8125H31.875V53.4375H30.3125C29.881 53.4375 29.5312 53.7873 29.5312 54.2188C29.5312 54.6502 29.881 55 30.3125 55H35C35.4315 55 35.7812 54.6502 35.7812 54.2188C35.7812 53.7873 35.4315 53.4375 35 53.4375H33.4375V42.8125H44.0625V53.4375H42.5C42.0685 53.4375 41.7188 53.7873 41.7188 54.2188C41.7188 54.6502 42.0685 55 42.5 55H54.2188C54.6502 55 55 54.6502 55 54.2188C55 53.7873 54.6502 53.4375 54.2188 53.4375H52.6562V28.75ZM45.625 38.125H51.0938V41.25H45.625V38.125ZM51.0938 33.4375V36.5625H45.625V33.4375H51.0938ZM18.9062 28.2812H21.875C22.3065 28.2812 22.6562 27.9315 22.6562 27.5C22.6562 27.0685 22.3065 26.7188 21.875 26.7188C21.3143 26.7188 18.0948 26.7188 17.4322 26.7188L25.3906 17.0134L33.3491 26.7188C32.6872 26.7188 29.4672 26.7188 28.9062 26.7188C28.4748 26.7188 28.125 27.0685 28.125 27.5C28.125 27.9315 28.4748 28.2812 28.9062 28.2812H31.875V41.25H28.5156V35.7812C28.5156 34.0581 27.1138 32.6562 25.3906 32.6562C23.6675 32.6562 22.2656 34.0581 22.2656 35.7812V41.25H18.9062V28.2812ZM26.9531 41.25H23.8281V35.7812C23.8281 34.9197 24.5291 34.2188 25.3906 34.2188C26.2522 34.2188 26.9531 34.9197 26.9531 35.7812V41.25ZM33.4375 41.25V34.2984C35.007 35.3417 36.8784 35.864 38.75 35.864C40.6216 35.864 42.493 35.3416 44.0625 34.2984V41.25H33.4375ZM51.0938 42.8125V45.9375H45.625V42.8125H51.0938ZM45.625 53.4375V47.5H51.0938V53.4375H45.625Z" fill="#171A27"/>
<path d="M25.3906 28.2812C25.8221 28.2812 26.1719 27.9315 26.1719 27.5C26.1719 27.0685 25.8221 26.7188 25.3906 26.7188C24.9592 26.7188 24.6094 27.0685 24.6094 27.5C24.6094 27.9315 24.9592 28.2812 25.3906 28.2812Z" fill="#171A27"/>
</svg>
