<svg width="70" height="70" viewBox="0 0 70 70" fill="none" xmlns="http://www.w3.org/2000/svg">
<rect x="2.5" y="2.5" width="65" height="65" stroke="#FF9781" stroke-width="5"/>
<path fill-rule="evenodd" clip-rule="evenodd" d="M50.2237 47.1997C49.7132 47.1161 49.2291 47.4511 49.143 47.9495L48.2466 53.1242H40.1701C40.2742 52.9025 40.354 52.6669 40.4049 52.4198L42.1301 44.0639C42.5458 42.6054 41.8544 41.0478 40.4737 40.347L32.2735 36.186L34.2518 30.9674L39.4114 32.3812C39.7025 32.4609 40.0021 32.5013 40.302 32.5013C41.2783 32.5013 42.1986 32.0816 42.8266 31.3496L47.2237 26.2254C47.7884 25.5664 48.0565 24.7322 47.9785 23.8769C47.9005 23.0209 47.4859 22.246 46.8114 21.695C46.2196 21.2116 45.4696 20.9452 44.6987 20.9452C43.7202 20.9452 42.7988 21.3654 42.1719 22.0973L39.1422 25.6279L35.6636 24.6746C37.0347 23.7017 37.9282 22.1252 37.9282 20.3474C37.9282 17.3989 35.4713 15 32.4515 15C29.4314 15 26.9745 17.3989 26.9745 20.3474C26.9745 21.7834 27.5586 23.0881 28.5052 24.0496L21.9973 24.3982C20.5233 24.4708 19.2712 25.5049 18.9534 26.9112L17.583 32.9061C17.3937 33.7435 17.5493 34.6031 18.0221 35.3261C18.4945 36.0491 19.2273 36.5493 20.085 36.7345C20.319 36.785 20.5585 36.8103 20.7965 36.8103C22.3258 36.8103 23.6753 35.7512 24.0052 34.2935L24.8303 30.6824L27.3857 30.5462L22.142 44.3789L18.2004 43.1221C17.8697 43.0173 17.527 42.964 17.1816 42.964C15.7512 42.964 14.4929 43.8569 14.0502 45.1859C13.7781 46.003 13.8484 46.8744 14.2476 47.6399C14.6467 48.4051 15.3275 48.9729 16.1628 49.2382L23.0403 51.4308C23.3929 51.552 23.7602 51.6135 24.132 51.6132C25.5082 51.6132 26.7515 50.7654 27.2242 49.506L29.9672 42.27L35.2391 44.9457L33.9559 51.159C33.8182 51.8313 33.9021 52.5131 34.1899 53.1242H11.9375C11.4197 53.1242 11 53.534 11 54.0396C11 54.5452 11.4197 54.9549 11.9375 54.9549H36.6402C36.8201 54.9843 37.0021 55 37.183 55C37.3679 55 37.5492 54.9843 37.7268 54.9549H49.0387C49.4961 54.9549 49.8868 54.6324 49.9634 54.1923L50.9917 48.2549C51.0781 47.7565 50.7342 47.2841 50.2237 47.1997ZM32.4512 16.8307C34.4375 16.8307 36.0532 18.4083 36.0532 20.3474C36.0532 22.2793 34.4496 23.8515 32.4739 23.8637C32.3779 23.8562 32.2812 23.8526 32.1849 23.8536C30.3231 23.7199 28.8495 22.1988 28.8495 20.3474C28.8495 18.4083 30.4652 16.8307 32.4512 16.8307ZM36.0045 52.5543C35.7954 52.2475 35.7207 51.8799 35.7943 51.5195L37.2167 44.6321C37.2994 44.232 37.1009 43.8268 36.73 43.6388L29.8891 40.1672C29.754 40.0985 29.6057 40.0642 29.4567 40.0642C29.3428 40.0642 29.2281 40.0846 29.119 40.1257C28.8682 40.2201 28.6711 40.4153 28.5777 40.6617L25.465 48.8731C25.2606 49.417 24.7248 49.7824 24.132 49.7824C23.9708 49.7828 23.8108 49.7556 23.6566 49.702C23.6489 49.6991 23.6409 49.6966 23.6332 49.6941L16.7436 47.4976C16.3833 47.3832 16.0903 47.1386 15.9182 46.8089C15.7465 46.4792 15.7161 46.1038 15.8332 45.752C16.024 45.1795 16.5657 44.7948 17.1816 44.7948C17.33 44.7948 17.4775 44.8176 17.6196 44.8627L22.4174 46.3924C22.896 46.545 23.4127 46.3012 23.5874 45.8399L29.6401 29.8736C29.7496 29.5847 29.7027 29.2611 29.5152 29.0126C29.3277 28.7648 29.0238 28.6253 28.7096 28.6421L24.0192 28.8921C23.5995 28.9143 23.2468 29.2064 23.1553 29.6069L22.1749 33.8966C22.0328 34.5241 21.4531 34.9796 20.7969 34.9796C20.6943 34.9796 20.5911 34.9685 20.4896 34.9467C20.1208 34.867 19.8059 34.6521 19.6027 34.3414C19.3998 34.0306 19.3328 33.6613 19.4137 33.303L20.7833 27.3077C20.9206 26.7024 21.4582 26.2576 22.0955 26.2264L32.019 25.6951C32.1359 25.6887 32.2501 25.6905 32.3673 25.693C32.4658 25.6951 32.5526 25.7173 32.672 25.7562L39.2184 27.5505C39.5736 27.6478 39.9537 27.533 40.1903 27.2569L43.6096 23.2726C43.8799 22.9572 44.2768 22.7763 44.6987 22.7763C45.0353 22.7763 45.3495 22.8879 45.608 23.0992C45.8988 23.3366 46.0775 23.6702 46.1108 24.0389C46.1445 24.4075 46.0292 24.7669 45.786 25.0504L41.3896 30.174C41.1186 30.4897 40.7224 30.671 40.302 30.671C40.1731 30.671 40.0438 30.6534 39.9178 30.6188L33.9259 28.9768C33.4557 28.8477 32.9631 29.0934 32.7936 29.5404L30.2279 36.3083C30.0638 36.741 30.2554 37.2251 30.675 37.4382L39.6091 41.9718C40.2097 42.2768 40.5082 42.9576 40.3185 43.5908C40.3111 43.6159 40.3045 43.6416 40.2994 43.667L38.5665 52.0597C38.4585 52.5857 38.0494 52.9934 37.5378 53.1246H36.831C36.4919 53.0398 36.2001 52.8407 36.0045 52.5543Z" fill="#171A27"/>
<path fill-rule="evenodd" clip-rule="evenodd" d="M55.8696 29.7463H48.823C47.097 29.7463 45.6926 31.1172 45.6926 32.8028C45.6926 34.4884 47.097 35.8596 48.823 35.8596H51.2371L50.3937 40.7286C50.3072 41.2274 50.6511 41.6997 51.1616 41.7841C51.2144 41.7927 51.2671 41.797 51.3191 41.797C51.7681 41.797 52.165 41.4809 52.2423 41.0339L53.1388 35.8596H55.8696C57.5956 35.8596 59 34.4884 59 32.8028C59 31.1172 57.5956 29.7463 55.8696 29.7463ZM55.8696 34.0285H48.823C48.1309 34.0285 47.5676 33.4786 47.5676 32.8028C47.5676 32.1266 48.1309 31.5767 48.823 31.5767H55.8696C56.5618 31.5767 57.125 32.1266 57.125 32.8028C57.125 33.4786 56.5618 34.0285 55.8696 34.0285Z" fill="#171A27"/>
<path fill-rule="evenodd" clip-rule="evenodd" d="M50.6928 43.5764C50.1762 43.5764 49.7549 43.9873 49.7549 44.4918C49.7549 44.9959 50.1762 45.4071 50.6928 45.4071C51.2093 45.4071 51.6307 44.9959 51.6307 44.4918C51.6307 43.9873 51.2093 43.5764 50.6928 43.5764Z" fill="#171A27"/>
</svg>
