<svg width="19" height="20" viewBox="0 0 19 20" fill="none" xmlns="http://www.w3.org/2000/svg">
<path d="M2.28363 0C1.02166 0 0.000204169 1.04048 0 2.32074C0 3.60224 1.02146 4.64252 2.28384 4.64252C3.54274 4.64252 4.56563 3.60224 4.56563 2.32074C4.56563 1.04027 3.54254 0 2.28363 0Z" fill="white"/>
<path d="M4.25178 6.40332H0.313965V19.2856H4.25178V6.40332Z" fill="white"/>
<path d="M14.2767 6.08325C12.3612 6.08325 11.0768 7.15114 10.551 8.1638H10.4984V6.40358H6.72164H6.72144V19.2857H10.6558V12.9128C10.6558 11.2327 10.9704 9.60536 13.019 9.60536C15.0383 9.60536 15.0652 11.5269 15.0652 13.0206V19.2855H19.0002V12.2196C19.0002 8.7513 18.2641 6.08325 14.2767 6.08325Z" fill="white"/>
</svg>
