<svg width="20" height="17" viewBox="0 0 20 17" fill="none" xmlns="http://www.w3.org/2000/svg">
<path d="M19.9766 1.95684C19.948 1.92276 19.9006 1.91119 19.8603 1.92978C19.2624 2.19729 18.6333 2.38961 17.9854 2.50322C18.6733 1.98143 19.1858 1.25884 19.4486 0.430287C19.4613 0.390625 19.4482 0.347245 19.416 0.321424C19.3836 0.295603 19.3388 0.292298 19.3033 0.313574C18.5286 0.776913 17.6896 1.1035 16.8084 1.28466C16.0275 0.46747 14.9372 0 13.8087 0C11.5137 0 9.64678 1.88269 9.64678 4.1969C9.64678 4.4768 9.67362 4.75402 9.72688 5.02318C6.54817 4.82529 3.57595 3.28633 1.555 0.786621C1.53431 0.761007 1.50297 0.746753 1.4702 0.750058C1.43763 0.752537 1.40854 0.771129 1.39215 0.799429C1.02344 1.43732 0.828641 2.16713 0.828641 2.90955C0.828641 4.19628 1.40834 5.39935 2.39546 6.1932C1.88725 6.13164 1.39093 5.97031 0.943351 5.71974C0.91324 5.70259 0.875754 5.7028 0.845642 5.72036C0.815531 5.73771 0.796481 5.76993 0.795662 5.80505L0.795252 5.85876C0.795252 7.70674 2.00278 9.32936 3.72077 9.86809C3.26828 9.94163 2.79879 9.93667 2.33729 9.84785C2.30328 9.84144 2.26764 9.85322 2.24429 9.87966C2.22114 9.9061 2.21336 9.94308 2.22401 9.97654C2.73918 11.5981 4.1706 12.7353 5.83677 12.877C4.44693 13.9039 2.80411 14.4449 1.0683 14.4449C0.748549 14.4449 0.42654 14.4257 0.111087 14.3883C0.0660227 14.3831 0.0213676 14.4102 0.00579979 14.4538C-0.00976803 14.4978 0.00682399 14.5469 0.0457435 14.5719C1.92412 15.7868 4.09604 16.4286 6.32695 16.4286C13.6244 16.4286 17.985 10.4508 17.985 4.6718C17.985 4.51089 17.9819 4.35079 17.9756 4.19111C18.7628 3.61044 19.4385 2.89963 19.9834 2.07686C20.0078 2.04009 20.0051 1.99114 19.9766 1.95684Z" fill="white"/>
</svg>
