<svg width="23" height="17" viewBox="0 0 23 17" fill="none" xmlns="http://www.w3.org/2000/svg">
<path d="M21.7602 2.59513C21.4891 1.3642 20.5259 0.45606 19.3664 0.320591C16.6205 0.000197321 13.8413 -0.00147504 11.075 0.000197408C8.3081 -0.00147504 5.52845 0.000197321 2.78262 0.320591C1.62377 0.45606 0.661256 1.3642 0.390171 2.59513C0.00434286 4.34809 0 6.26162 0 8.06643C0 9.87125 0 11.7845 0.385828 13.5373C0.656456 14.7679 1.6192 15.6761 2.77874 15.8118C5.52433 16.1324 8.30376 16.1341 11.0706 16.1324C13.8379 16.1341 16.6167 16.1324 19.362 15.8118C20.5209 15.6763 21.4843 14.7682 21.7554 13.5373C22.1415 11.7843 22.1428 9.87101 22.1428 8.06643C22.1428 6.26162 22.146 4.34809 21.7602 2.59513ZM8.21393 11.6589C8.21393 9.09857 8.21393 6.56505 8.21393 4.00453C10.5607 5.28443 12.8919 6.55573 15.2535 7.84352C12.8992 9.11984 10.5668 10.3835 8.21393 11.6589Z" fill="white"/>
</svg>
