<svg width="861" height="432" viewBox="0 0 861 432" fill="none" xmlns="http://www.w3.org/2000/svg">
<rect width="511" height="406" fill="white"/>
<path d="M108.463 126.75H861" stroke="#DCDCDC" stroke-width="2" stroke-miterlimit="10"/>
<path d="M108.463 190.516H861" stroke="#DFDFDF" stroke-width="2" stroke-miterlimit="10"/>
<path d="M108.463 254.283H861" stroke="#E0E0E0" stroke-width="2" stroke-miterlimit="10"/>
<path d="M108.463 318.049H861" stroke="#DBDBDB" stroke-width="2" stroke-miterlimit="10"/>
<path d="M108.463 379.379H861" stroke="#CCCCCC" stroke-width="2" stroke-miterlimit="10"/>
<path d="M119.469 375.259C119.469 375.259 132.993 391.683 174.5 268.994C201.469 189.277 215.674 206.34 235 243.429C281.5 332.667 288.5 386.21 323 337.008C383.5 268.994 362.066 280.592 408.443 237.223C421.281 228.272 439.592 230.644 464.869 275.469C478.723 304.586 491.719 336.393 507.121 360.411C522.523 384.43 540.955 397.581 576.184 323.18C611.412 248.78 637.871 204.718 685.307 282.565C732.743 360.411 757.204 362.147 790.596 291.562C823.987 220.977 832.788 209.715 853.501 205.407" stroke="#8F8F8F" stroke-miterlimit="10" stroke-dasharray="9 9"/>
<path d="M117 372.073C154.391 372.073 190.077 158.165 226.827 158.165C263.577 158.165 286.978 286.971 328.439 284.572C369.899 282.173 398.481 172.201 435.05 170.998C471.62 169.795 509.686 243.64 537.33 242.437C564.974 241.233 608.858 159.368 641.372 155.75C669.008 155.75 712.494 198.486 747.447 175.613C782.401 152.74 816.949 113.331 847 103.577" stroke="#0A254C" stroke-width="2" stroke-miterlimit="10" stroke-linecap="round"/>
<path d="M112.766 420.089C112.064 420.089 111.436 419.903 110.881 419.53C110.335 419.158 109.906 418.625 109.594 417.931C109.291 417.229 109.139 416.406 109.139 415.461C109.139 414.517 109.291 413.698 109.594 413.004C109.906 412.302 110.335 411.765 110.881 411.392C111.436 411.02 112.064 410.833 112.766 410.833C113.468 410.833 114.092 411.02 114.638 411.392C115.193 411.765 115.626 412.302 115.938 413.004C116.25 413.698 116.406 414.517 116.406 415.461C116.406 416.406 116.25 417.229 115.938 417.931C115.626 418.625 115.193 419.158 114.638 419.53C114.092 419.903 113.468 420.089 112.766 420.089ZM112.766 419.231C113.295 419.231 113.759 419.084 114.157 418.789C114.565 418.495 114.881 418.066 115.106 417.502C115.332 416.939 115.444 416.259 115.444 415.461C115.444 414.664 115.332 413.984 115.106 413.42C114.881 412.857 114.565 412.428 114.157 412.133C113.759 411.839 113.295 411.691 112.766 411.691C112.238 411.691 111.77 411.839 111.362 412.133C110.964 412.428 110.652 412.857 110.426 413.42C110.201 413.984 110.088 414.664 110.088 415.461C110.088 416.259 110.201 416.939 110.426 417.502C110.652 418.066 110.964 418.495 111.362 418.789C111.77 419.084 112.238 419.231 112.766 419.231ZM120.243 410.911V420.011H119.307V411.743H117.162V410.911H120.243Z" fill="#262A40"/>
<path d="M32.46 36.5979V43.5979H31.74V37.2379H30.09V36.5979H32.46ZM38.9133 42.9579V43.5979H34.0033V43.0879L36.9133 40.2379C37.2799 39.8779 37.5266 39.5679 37.6533 39.3079C37.7866 39.0412 37.8533 38.7746 37.8533 38.5079C37.8533 38.0946 37.7099 37.7746 37.4233 37.5479C37.1433 37.3146 36.7399 37.1979 36.2133 37.1979C35.3933 37.1979 34.7566 37.4579 34.3033 37.9779L33.7933 37.5379C34.0666 37.2179 34.4133 36.9712 34.8333 36.7979C35.2599 36.6246 35.7399 36.5379 36.2733 36.5379C36.9866 36.5379 37.5499 36.7079 37.9633 37.0479C38.3833 37.3812 38.5933 37.8412 38.5933 38.4279C38.5933 38.7879 38.5133 39.1346 38.3533 39.4679C38.1933 39.8012 37.8899 40.1846 37.4433 40.6179L35.0633 42.9579H38.9133ZM40.4545 43.6479C40.3079 43.6479 40.1812 43.5946 40.0745 43.4879C39.9745 43.3812 39.9245 43.2512 39.9245 43.0979C39.9245 42.9446 39.9745 42.8179 40.0745 42.7179C40.1812 42.6112 40.3079 42.5579 40.4545 42.5579C40.6012 42.5579 40.7279 42.6112 40.8345 42.7179C40.9412 42.8179 40.9945 42.9446 40.9945 43.0979C40.9945 43.2512 40.9412 43.3812 40.8345 43.4879C40.7279 43.5946 40.6012 43.6479 40.4545 43.6479ZM43.8737 39.4679C44.887 39.4679 45.6237 39.6512 46.0837 40.0179C46.5503 40.3779 46.7837 40.8846 46.7837 41.5379C46.7837 41.9446 46.687 42.3079 46.4937 42.6279C46.307 42.9479 46.0237 43.2012 45.6437 43.3879C45.2637 43.5679 44.797 43.6579 44.2437 43.6579C43.7437 43.6579 43.267 43.5779 42.8137 43.4179C42.367 43.2512 42.007 43.0312 41.7337 42.7579L42.0837 42.1879C42.317 42.4279 42.6237 42.6246 43.0037 42.7779C43.3837 42.9246 43.7937 42.9979 44.2337 42.9979C44.8137 42.9979 45.2603 42.8679 45.5737 42.6079C45.8937 42.3479 46.0537 42.0012 46.0537 41.5679C46.0537 41.0879 45.8737 40.7246 45.5137 40.4779C45.1603 40.2312 44.5603 40.1079 43.7137 40.1079H42.2237L42.5837 36.5979H46.4137V37.2379H43.2137L42.9737 39.4679H43.8737ZM49.0801 40.3479C48.6067 40.3479 48.2234 40.1746 47.9301 39.8279C47.6434 39.4746 47.5001 39.0146 47.5001 38.4479C47.5001 37.8812 47.6434 37.4246 47.9301 37.0779C48.2234 36.7246 48.6067 36.5479 49.0801 36.5479C49.5467 36.5479 49.9267 36.7212 50.2201 37.0679C50.5134 37.4146 50.6601 37.8746 50.6601 38.4479C50.6601 39.0212 50.5134 39.4812 50.2201 39.8279C49.9267 40.1746 49.5467 40.3479 49.0801 40.3479ZM53.3201 36.5979H53.9101L49.1301 43.5979H48.5401L53.3201 36.5979ZM49.0801 39.8979C49.4067 39.8979 49.6667 39.7712 49.8601 39.5179C50.0601 39.2579 50.1601 38.9012 50.1601 38.4479C50.1601 37.9946 50.0601 37.6412 49.8601 37.3879C49.6667 37.1279 49.4067 36.9979 49.0801 36.9979C48.7467 36.9979 48.4834 37.1279 48.2901 37.3879C48.0967 37.6479 48.0001 38.0012 48.0001 38.4479C48.0001 38.8946 48.0967 39.2479 48.2901 39.5079C48.4834 39.7679 48.7467 39.8979 49.0801 39.8979ZM53.3701 43.6479C52.9034 43.6479 52.5234 43.4746 52.2301 43.1279C51.9367 42.7746 51.7901 42.3146 51.7901 41.7479C51.7901 41.1812 51.9367 40.7246 52.2301 40.3779C52.5234 40.0246 52.9034 39.8479 53.3701 39.8479C53.8434 39.8479 54.2234 40.0246 54.5101 40.3779C54.8034 40.7246 54.9501 41.1812 54.9501 41.7479C54.9501 42.3146 54.8034 42.7746 54.5101 43.1279C54.2234 43.4746 53.8434 43.6479 53.3701 43.6479ZM53.3701 43.1979C53.7034 43.1979 53.9667 43.0679 54.1601 42.8079C54.3534 42.5479 54.4501 42.1946 54.4501 41.7479C54.4501 41.3012 54.3534 40.9479 54.1601 40.6879C53.9667 40.4279 53.7034 40.2979 53.3701 40.2979C53.0434 40.2979 52.7801 40.4279 52.5801 40.6879C52.3867 40.9412 52.2901 41.2946 52.2901 41.7479C52.2901 42.2012 52.3867 42.5579 52.5801 42.8179C52.7801 43.0712 53.0434 43.1979 53.3701 43.1979Z" fill="#262A40"/>
<path d="M32.46 97.5093V104.509H31.74V98.1493H30.09V97.5093H32.46ZM36.9233 104.569C36.3833 104.569 35.8999 104.426 35.4733 104.139C35.0533 103.853 34.7233 103.443 34.4833 102.909C34.2499 102.369 34.1333 101.736 34.1333 101.009C34.1333 100.283 34.2499 99.6526 34.4833 99.1193C34.7233 98.5793 35.0533 98.1659 35.4733 97.8793C35.8999 97.5926 36.3833 97.4493 36.9233 97.4493C37.4633 97.4493 37.9433 97.5926 38.3633 97.8793C38.7899 98.1659 39.1233 98.5793 39.3633 99.1193C39.6033 99.6526 39.7233 100.283 39.7233 101.009C39.7233 101.736 39.6033 102.369 39.3633 102.909C39.1233 103.443 38.7899 103.853 38.3633 104.139C37.9433 104.426 37.4633 104.569 36.9233 104.569ZM36.9233 103.909C37.3299 103.909 37.6866 103.796 37.9933 103.569C38.3066 103.343 38.5499 103.013 38.7233 102.579C38.8966 102.146 38.9833 101.623 38.9833 101.009C38.9833 100.396 38.8966 99.8726 38.7233 99.4393C38.5499 99.0059 38.3066 98.6759 37.9933 98.4493C37.6866 98.2226 37.3299 98.1093 36.9233 98.1093C36.5166 98.1093 36.1566 98.2226 35.8433 98.4493C35.5366 98.6759 35.2966 99.0059 35.1233 99.4393C34.9499 99.8726 34.8633 100.396 34.8633 101.009C34.8633 101.623 34.9499 102.146 35.1233 102.579C35.2966 103.013 35.5366 103.343 35.8433 103.569C36.1566 103.796 36.5166 103.909 36.9233 103.909ZM42.2344 101.259C41.761 101.259 41.3777 101.086 41.0844 100.739C40.7977 100.386 40.6544 99.9259 40.6544 99.3593C40.6544 98.7926 40.7977 98.3359 41.0844 97.9893C41.3777 97.6359 41.761 97.4593 42.2344 97.4593C42.701 97.4593 43.081 97.6326 43.3744 97.9793C43.6677 98.3259 43.8144 98.7859 43.8144 99.3593C43.8144 99.9326 43.6677 100.393 43.3744 100.739C43.081 101.086 42.701 101.259 42.2344 101.259ZM46.4744 97.5093H47.0644L42.2844 104.509H41.6944L46.4744 97.5093ZM42.2344 100.809C42.561 100.809 42.821 100.683 43.0144 100.429C43.2144 100.169 43.3144 99.8126 43.3144 99.3593C43.3144 98.9059 43.2144 98.5526 43.0144 98.2993C42.821 98.0393 42.561 97.9093 42.2344 97.9093C41.901 97.9093 41.6377 98.0393 41.4444 98.2993C41.251 98.5593 41.1544 98.9126 41.1544 99.3593C41.1544 99.8059 41.251 100.159 41.4444 100.419C41.6377 100.679 41.901 100.809 42.2344 100.809ZM46.5244 104.559C46.0577 104.559 45.6777 104.386 45.3844 104.039C45.091 103.686 44.9444 103.226 44.9444 102.659C44.9444 102.093 45.091 101.636 45.3844 101.289C45.6777 100.936 46.0577 100.759 46.5244 100.759C46.9977 100.759 47.3777 100.936 47.6644 101.289C47.9577 101.636 48.1044 102.093 48.1044 102.659C48.1044 103.226 47.9577 103.686 47.6644 104.039C47.3777 104.386 46.9977 104.559 46.5244 104.559ZM46.5244 104.109C46.8577 104.109 47.121 103.979 47.3144 103.719C47.5077 103.459 47.6044 103.106 47.6044 102.659C47.6044 102.213 47.5077 101.859 47.3144 101.599C47.121 101.339 46.8577 101.209 46.5244 101.209C46.1977 101.209 45.9344 101.339 45.7344 101.599C45.541 101.853 45.4444 102.206 45.4444 102.659C45.4444 103.113 45.541 103.469 45.7344 103.729C45.9344 103.983 46.1977 104.109 46.5244 104.109Z" fill="#262A40"/>
<path d="M35.46 161.069V161.579L32.53 168.069H31.75L34.63 161.709H31.03V163.019H30.32V161.069H35.46ZM36.4213 168.119C36.2747 168.119 36.148 168.066 36.0413 167.959C35.9413 167.853 35.8913 167.723 35.8913 167.569C35.8913 167.416 35.9413 167.289 36.0413 167.189C36.148 167.083 36.2747 167.029 36.4213 167.029C36.568 167.029 36.6947 167.083 36.8013 167.189C36.908 167.289 36.9613 167.416 36.9613 167.569C36.9613 167.723 36.908 167.853 36.8013 167.959C36.6947 168.066 36.568 168.119 36.4213 168.119ZM39.8405 163.939C40.8538 163.939 41.5905 164.123 42.0505 164.489C42.5171 164.849 42.7505 165.356 42.7505 166.009C42.7505 166.416 42.6538 166.779 42.4605 167.099C42.2738 167.419 41.9905 167.673 41.6105 167.859C41.2305 168.039 40.7638 168.129 40.2105 168.129C39.7105 168.129 39.2338 168.049 38.7805 167.889C38.3338 167.723 37.9738 167.503 37.7005 167.229L38.0505 166.659C38.2838 166.899 38.5905 167.096 38.9705 167.249C39.3505 167.396 39.7605 167.469 40.2005 167.469C40.7805 167.469 41.2271 167.339 41.5405 167.079C41.8605 166.819 42.0205 166.473 42.0205 166.039C42.0205 165.559 41.8405 165.196 41.4805 164.949C41.1271 164.703 40.5271 164.579 39.6805 164.579H38.1905L38.5505 161.069H42.3805V161.709H39.1805L38.9405 163.939H39.8405ZM45.0469 164.819C44.5735 164.819 44.1902 164.646 43.8969 164.299C43.6102 163.946 43.4669 163.486 43.4669 162.919C43.4669 162.353 43.6102 161.896 43.8969 161.549C44.1902 161.196 44.5735 161.019 45.0469 161.019C45.5135 161.019 45.8935 161.193 46.1869 161.539C46.4802 161.886 46.6269 162.346 46.6269 162.919C46.6269 163.493 46.4802 163.953 46.1869 164.299C45.8935 164.646 45.5135 164.819 45.0469 164.819ZM49.2869 161.069H49.8769L45.0969 168.069H44.5069L49.2869 161.069ZM45.0469 164.369C45.3735 164.369 45.6335 164.243 45.8269 163.989C46.0269 163.729 46.1269 163.373 46.1269 162.919C46.1269 162.466 46.0269 162.113 45.8269 161.859C45.6335 161.599 45.3735 161.469 45.0469 161.469C44.7135 161.469 44.4502 161.599 44.2569 161.859C44.0635 162.119 43.9669 162.473 43.9669 162.919C43.9669 163.366 44.0635 163.719 44.2569 163.979C44.4502 164.239 44.7135 164.369 45.0469 164.369ZM49.3369 168.119C48.8702 168.119 48.4902 167.946 48.1969 167.599C47.9035 167.246 47.7569 166.786 47.7569 166.219C47.7569 165.653 47.9035 165.196 48.1969 164.849C48.4902 164.496 48.8702 164.319 49.3369 164.319C49.8102 164.319 50.1902 164.496 50.4769 164.849C50.7702 165.196 50.9169 165.653 50.9169 166.219C50.9169 166.786 50.7702 167.246 50.4769 167.599C50.1902 167.946 49.8102 168.119 49.3369 168.119ZM49.3369 167.669C49.6702 167.669 49.9335 167.539 50.1269 167.279C50.3202 167.019 50.4169 166.666 50.4169 166.219C50.4169 165.773 50.3202 165.419 50.1269 165.159C49.9335 164.899 49.6702 164.769 49.3369 164.769C49.0102 164.769 48.7469 164.899 48.5469 165.159C48.3535 165.413 48.2569 165.766 48.2569 166.219C48.2569 166.673 48.3535 167.029 48.5469 167.289C48.7469 167.543 49.0102 167.669 49.3369 167.669Z" fill="#262A40"/>
<path d="M32.36 224.85C33.3733 224.85 34.11 225.034 34.57 225.4C35.0367 225.76 35.27 226.267 35.27 226.92C35.27 227.327 35.1733 227.69 34.98 228.01C34.7933 228.33 34.51 228.584 34.13 228.77C33.75 228.95 33.2833 229.04 32.73 229.04C32.23 229.04 31.7533 228.96 31.3 228.8C30.8533 228.634 30.4933 228.414 30.22 228.14L30.57 227.57C30.8033 227.81 31.11 228.007 31.49 228.16C31.87 228.307 32.28 228.38 32.72 228.38C33.3 228.38 33.7467 228.25 34.06 227.99C34.38 227.73 34.54 227.384 34.54 226.95C34.54 226.47 34.36 226.107 34 225.86C33.6467 225.614 33.0467 225.49 32.2 225.49H30.71L31.07 221.98H34.9V222.62H31.7L31.46 224.85H32.36ZM37.5664 225.73C37.0931 225.73 36.7097 225.557 36.4164 225.21C36.1297 224.857 35.9864 224.397 35.9864 223.83C35.9864 223.264 36.1297 222.807 36.4164 222.46C36.7097 222.107 37.0931 221.93 37.5664 221.93C38.0331 221.93 38.4131 222.104 38.7064 222.45C38.9997 222.797 39.1464 223.257 39.1464 223.83C39.1464 224.404 38.9997 224.864 38.7064 225.21C38.4131 225.557 38.0331 225.73 37.5664 225.73ZM41.8064 221.98H42.3964L37.6164 228.98H37.0264L41.8064 221.98ZM37.5664 225.28C37.8931 225.28 38.1531 225.154 38.3464 224.9C38.5464 224.64 38.6464 224.284 38.6464 223.83C38.6464 223.377 38.5464 223.024 38.3464 222.77C38.1531 222.51 37.8931 222.38 37.5664 222.38C37.2331 222.38 36.9697 222.51 36.7764 222.77C36.5831 223.03 36.4864 223.384 36.4864 223.83C36.4864 224.277 36.5831 224.63 36.7764 224.89C36.9697 225.15 37.2331 225.28 37.5664 225.28ZM41.8564 229.03C41.3897 229.03 41.0097 228.857 40.7164 228.51C40.4231 228.157 40.2764 227.697 40.2764 227.13C40.2764 226.564 40.4231 226.107 40.7164 225.76C41.0097 225.407 41.3897 225.23 41.8564 225.23C42.3297 225.23 42.7097 225.407 42.9964 225.76C43.2897 226.107 43.4364 226.564 43.4364 227.13C43.4364 227.697 43.2897 228.157 42.9964 228.51C42.7097 228.857 42.3297 229.03 41.8564 229.03ZM41.8564 228.58C42.1897 228.58 42.4531 228.45 42.6464 228.19C42.8397 227.93 42.9364 227.577 42.9364 227.13C42.9364 226.684 42.8397 226.33 42.6464 226.07C42.4531 225.81 42.1897 225.68 41.8564 225.68C41.5297 225.68 41.2664 225.81 41.0664 226.07C40.8731 226.324 40.7764 226.677 40.7764 227.13C40.7764 227.584 40.8731 227.94 41.0664 228.2C41.2664 228.454 41.5297 228.58 41.8564 228.58Z" fill="#262A40"/>
<path d="M35.3 299.845V300.485H30.39V299.975L33.3 297.125C33.6667 296.765 33.9133 296.455 34.04 296.195C34.1733 295.928 34.24 295.662 34.24 295.395C34.24 294.982 34.0967 294.662 33.81 294.435C33.53 294.202 33.1267 294.085 32.6 294.085C31.78 294.085 31.1433 294.345 30.69 294.865L30.18 294.425C30.4533 294.105 30.8 293.858 31.22 293.685C31.6467 293.512 32.1267 293.425 32.66 293.425C33.3733 293.425 33.9367 293.595 34.35 293.935C34.77 294.268 34.98 294.728 34.98 295.315C34.98 295.675 34.9 296.022 34.74 296.355C34.58 296.688 34.2767 297.072 33.83 297.505L31.45 299.845H35.3ZM36.8413 300.535C36.6946 300.535 36.5679 300.482 36.4613 300.375C36.3613 300.268 36.3113 300.138 36.3113 299.985C36.3113 299.832 36.3613 299.705 36.4613 299.605C36.5679 299.498 36.6946 299.445 36.8413 299.445C36.9879 299.445 37.1146 299.498 37.2213 299.605C37.3279 299.705 37.3813 299.832 37.3813 299.985C37.3813 300.138 37.3279 300.268 37.2213 300.375C37.1146 300.482 36.9879 300.535 36.8413 300.535ZM40.2604 296.355C41.2737 296.355 42.0104 296.538 42.4704 296.905C42.9371 297.265 43.1704 297.772 43.1704 298.425C43.1704 298.832 43.0737 299.195 42.8804 299.515C42.6937 299.835 42.4104 300.088 42.0304 300.275C41.6504 300.455 41.1837 300.545 40.6304 300.545C40.1304 300.545 39.6537 300.465 39.2004 300.305C38.7537 300.138 38.3937 299.918 38.1204 299.645L38.4704 299.075C38.7037 299.315 39.0104 299.512 39.3904 299.665C39.7704 299.812 40.1804 299.885 40.6204 299.885C41.2004 299.885 41.6471 299.755 41.9604 299.495C42.2804 299.235 42.4404 298.888 42.4404 298.455C42.4404 297.975 42.2604 297.612 41.9004 297.365C41.5471 297.118 40.9471 296.995 40.1004 296.995H38.6104L38.9704 293.485H42.8004V294.125H39.6004L39.3604 296.355H40.2604ZM45.4668 297.235C44.9935 297.235 44.6101 297.062 44.3168 296.715C44.0301 296.362 43.8868 295.902 43.8868 295.335C43.8868 294.768 44.0301 294.312 44.3168 293.965C44.6101 293.612 44.9935 293.435 45.4668 293.435C45.9335 293.435 46.3135 293.608 46.6068 293.955C46.9001 294.302 47.0468 294.762 47.0468 295.335C47.0468 295.908 46.9001 296.368 46.6068 296.715C46.3135 297.062 45.9335 297.235 45.4668 297.235ZM49.7068 293.485H50.2968L45.5168 300.485H44.9268L49.7068 293.485ZM45.4668 296.785C45.7935 296.785 46.0535 296.658 46.2468 296.405C46.4468 296.145 46.5468 295.788 46.5468 295.335C46.5468 294.882 46.4468 294.528 46.2468 294.275C46.0535 294.015 45.7935 293.885 45.4668 293.885C45.1335 293.885 44.8701 294.015 44.6768 294.275C44.4835 294.535 44.3868 294.888 44.3868 295.335C44.3868 295.782 44.4835 296.135 44.6768 296.395C44.8701 296.655 45.1335 296.785 45.4668 296.785ZM49.7568 300.535C49.2901 300.535 48.9101 300.362 48.6168 300.015C48.3235 299.662 48.1768 299.202 48.1768 298.635C48.1768 298.068 48.3235 297.612 48.6168 297.265C48.9101 296.912 49.2901 296.735 49.7568 296.735C50.2301 296.735 50.6101 296.912 50.8968 297.265C51.1901 297.612 51.3368 298.068 51.3368 298.635C51.3368 299.202 51.1901 299.662 50.8968 300.015C50.6101 300.362 50.2301 300.535 49.7568 300.535ZM49.7568 300.085C50.0901 300.085 50.3535 299.955 50.5468 299.695C50.7401 299.435 50.8368 299.082 50.8368 298.635C50.8368 298.188 50.7401 297.835 50.5468 297.575C50.3535 297.315 50.0901 297.185 49.7568 297.185C49.4301 297.185 49.1668 297.315 48.9668 297.575C48.7735 297.828 48.6768 298.182 48.6768 298.635C48.6768 299.088 48.7735 299.445 48.9668 299.705C49.1668 299.958 49.4301 300.085 49.7568 300.085Z" fill="#262A40"/>
<path d="M33.31 361.456C32.77 361.456 32.2867 361.313 31.86 361.026C31.44 360.74 31.11 360.33 30.87 359.796C30.6367 359.256 30.52 358.623 30.52 357.896C30.52 357.17 30.6367 356.54 30.87 356.006C31.11 355.466 31.44 355.053 31.86 354.766C32.2867 354.48 32.77 354.336 33.31 354.336C33.85 354.336 34.33 354.48 34.75 354.766C35.1767 355.053 35.51 355.466 35.75 356.006C35.99 356.54 36.11 357.17 36.11 357.896C36.11 358.623 35.99 359.256 35.75 359.796C35.51 360.33 35.1767 360.74 34.75 361.026C34.33 361.313 33.85 361.456 33.31 361.456ZM33.31 360.796C33.7167 360.796 34.0733 360.683 34.38 360.456C34.6933 360.23 34.9367 359.9 35.11 359.466C35.2833 359.033 35.37 358.51 35.37 357.896C35.37 357.283 35.2833 356.76 35.11 356.326C34.9367 355.893 34.6933 355.563 34.38 355.336C34.0733 355.11 33.7167 354.996 33.31 354.996C32.9033 354.996 32.5433 355.11 32.23 355.336C31.9233 355.563 31.6833 355.893 31.51 356.326C31.3367 356.76 31.25 357.283 31.25 357.896C31.25 358.51 31.3367 359.033 31.51 359.466C31.6833 359.9 31.9233 360.23 32.23 360.456C32.5433 360.683 32.9033 360.796 33.31 360.796ZM37.5737 361.446C37.427 361.446 37.3003 361.393 37.1937 361.286C37.0937 361.18 37.0437 361.05 37.0437 360.896C37.0437 360.743 37.0937 360.616 37.1937 360.516C37.3003 360.41 37.427 360.356 37.5737 360.356C37.7203 360.356 37.847 360.41 37.9537 360.516C38.0603 360.616 38.1137 360.743 38.1137 360.896C38.1137 361.05 38.0603 361.18 37.9537 361.286C37.847 361.393 37.7203 361.446 37.5737 361.446ZM41.8354 361.456C41.2954 361.456 40.8121 361.313 40.3854 361.026C39.9654 360.74 39.6354 360.33 39.3954 359.796C39.1621 359.256 39.0454 358.623 39.0454 357.896C39.0454 357.17 39.1621 356.54 39.3954 356.006C39.6354 355.466 39.9654 355.053 40.3854 354.766C40.8121 354.48 41.2954 354.336 41.8354 354.336C42.3754 354.336 42.8554 354.48 43.2754 354.766C43.7021 355.053 44.0354 355.466 44.2754 356.006C44.5154 356.54 44.6354 357.17 44.6354 357.896C44.6354 358.623 44.5154 359.256 44.2754 359.796C44.0354 360.33 43.7021 360.74 43.2754 361.026C42.8554 361.313 42.3754 361.456 41.8354 361.456ZM41.8354 360.796C42.2421 360.796 42.5987 360.683 42.9054 360.456C43.2187 360.23 43.4621 359.9 43.6354 359.466C43.8087 359.033 43.8954 358.51 43.8954 357.896C43.8954 357.283 43.8087 356.76 43.6354 356.326C43.4621 355.893 43.2187 355.563 42.9054 355.336C42.5987 355.11 42.2421 354.996 41.8354 354.996C41.4287 354.996 41.0687 355.11 40.7554 355.336C40.4487 355.563 40.2087 355.893 40.0354 356.326C39.8621 356.76 39.7754 357.283 39.7754 357.896C39.7754 358.51 39.8621 359.033 40.0354 359.466C40.2087 359.9 40.4487 360.23 40.7554 360.456C41.0687 360.683 41.4287 360.796 41.8354 360.796ZM47.1465 358.146C46.6732 358.146 46.2898 357.973 45.9965 357.626C45.7098 357.273 45.5665 356.813 45.5665 356.246C45.5665 355.68 45.7098 355.223 45.9965 354.876C46.2898 354.523 46.6732 354.346 47.1465 354.346C47.6132 354.346 47.9932 354.52 48.2865 354.866C48.5798 355.213 48.7265 355.673 48.7265 356.246C48.7265 356.82 48.5798 357.28 48.2865 357.626C47.9932 357.973 47.6132 358.146 47.1465 358.146ZM51.3865 354.396H51.9765L47.1965 361.396H46.6065L51.3865 354.396ZM47.1465 357.696C47.4732 357.696 47.7332 357.57 47.9265 357.316C48.1265 357.056 48.2265 356.7 48.2265 356.246C48.2265 355.793 48.1265 355.44 47.9265 355.186C47.7332 354.926 47.4732 354.796 47.1465 354.796C46.8132 354.796 46.5498 354.926 46.3565 355.186C46.1632 355.446 46.0665 355.8 46.0665 356.246C46.0665 356.693 46.1632 357.046 46.3565 357.306C46.5498 357.566 46.8132 357.696 47.1465 357.696ZM51.4365 361.446C50.9698 361.446 50.5898 361.273 50.2965 360.926C50.0032 360.573 49.8565 360.113 49.8565 359.546C49.8565 358.98 50.0032 358.523 50.2965 358.176C50.5898 357.823 50.9698 357.646 51.4365 357.646C51.9098 357.646 52.2898 357.823 52.5765 358.176C52.8698 358.523 53.0165 358.98 53.0165 359.546C53.0165 360.113 52.8698 360.573 52.5765 360.926C52.2898 361.273 51.9098 361.446 51.4365 361.446ZM51.4365 360.996C51.7698 360.996 52.0332 360.866 52.2265 360.606C52.4198 360.346 52.5165 359.993 52.5165 359.546C52.5165 359.1 52.4198 358.746 52.2265 358.486C52.0332 358.226 51.7698 358.096 51.4365 358.096C51.1098 358.096 50.8465 358.226 50.6465 358.486C50.4532 358.74 50.3565 359.093 50.3565 359.546C50.3565 360 50.4532 360.356 50.6465 360.616C50.8465 360.87 51.1098 360.996 51.4365 360.996Z" fill="#262A40"/>
<path d="M217.979 420.089C217.277 420.089 216.649 419.903 216.094 419.53C215.548 419.158 215.119 418.625 214.807 417.931C214.504 417.229 214.352 416.406 214.352 415.461C214.352 414.517 214.504 413.698 214.807 413.004C215.119 412.302 215.548 411.765 216.094 411.392C216.649 411.02 217.277 410.833 217.979 410.833C218.681 410.833 219.305 411.02 219.851 411.392C220.406 411.765 220.839 412.302 221.151 413.004C221.463 413.698 221.619 414.517 221.619 415.461C221.619 416.406 221.463 417.229 221.151 417.931C220.839 418.625 220.406 419.158 219.851 419.53C219.305 419.903 218.681 420.089 217.979 420.089ZM217.979 419.231C218.508 419.231 218.971 419.084 219.37 418.789C219.777 418.495 220.094 418.066 220.319 417.502C220.544 416.939 220.657 416.259 220.657 415.461C220.657 414.664 220.544 413.984 220.319 413.42C220.094 412.857 219.777 412.428 219.37 412.133C218.971 411.839 218.508 411.691 217.979 411.691C217.45 411.691 216.982 411.839 216.575 412.133C216.176 412.428 215.864 412.857 215.639 413.42C215.414 413.984 215.301 414.664 215.301 415.461C215.301 416.259 215.414 416.939 215.639 417.502C215.864 418.066 216.176 418.495 216.575 418.789C216.982 419.084 217.45 419.231 217.979 419.231ZM225.926 414.811C226.88 414.863 227.603 415.123 228.097 415.591C228.6 416.051 228.851 416.653 228.851 417.398C228.851 417.918 228.726 418.382 228.474 418.789C228.223 419.188 227.85 419.504 227.356 419.738C226.862 419.972 226.26 420.089 225.549 420.089C224.891 420.089 224.267 419.985 223.677 419.777C223.097 419.561 222.629 419.275 222.273 418.919L222.728 418.178C223.032 418.49 223.435 418.746 223.937 418.945C224.44 419.136 224.977 419.231 225.549 419.231C226.295 419.231 226.871 419.071 227.278 418.75C227.686 418.421 227.889 417.97 227.889 417.398C227.889 416.835 227.686 416.393 227.278 416.072C226.871 415.752 226.256 415.591 225.432 415.591H224.782V414.902L227.304 411.743H222.65V410.911H228.5V411.574L225.926 414.811Z" fill="#262A40"/>
<path d="M323.091 420.154C322.389 420.154 321.76 419.967 321.206 419.595C320.66 419.222 320.231 418.689 319.919 417.996C319.615 417.294 319.464 416.47 319.464 415.526C319.464 414.581 319.615 413.762 319.919 413.069C320.231 412.367 320.66 411.829 321.206 411.457C321.76 411.084 322.389 410.898 323.091 410.898C323.793 410.898 324.417 411.084 324.963 411.457C325.517 411.829 325.951 412.367 326.263 413.069C326.575 413.762 326.731 414.581 326.731 415.526C326.731 416.47 326.575 417.294 326.263 417.996C325.951 418.689 325.517 419.222 324.963 419.595C324.417 419.967 323.793 420.154 323.091 420.154ZM323.091 419.296C323.619 419.296 324.083 419.148 324.482 418.854C324.889 418.559 325.205 418.13 325.431 417.567C325.656 417.003 325.769 416.323 325.769 415.526C325.769 414.728 325.656 414.048 325.431 413.485C325.205 412.921 324.889 412.492 324.482 412.198C324.083 411.903 323.619 411.756 323.091 411.756C322.562 411.756 322.094 411.903 321.687 412.198C321.288 412.492 320.976 412.921 320.751 413.485C320.525 414.048 320.413 414.728 320.413 415.526C320.413 416.323 320.525 417.003 320.751 417.567C320.976 418.13 321.288 418.559 321.687 418.854C322.094 419.148 322.562 419.296 323.091 419.296ZM330.463 414.707C331.78 414.707 332.738 414.945 333.336 415.422C333.943 415.89 334.246 416.548 334.246 417.398C334.246 417.926 334.12 418.399 333.869 418.815C333.626 419.231 333.258 419.56 332.764 419.803C332.27 420.037 331.663 420.154 330.944 420.154C330.294 420.154 329.674 420.05 329.085 419.842C328.504 419.625 328.036 419.339 327.681 418.984L328.136 418.243C328.439 418.555 328.838 418.81 329.332 419.01C329.826 419.2 330.359 419.296 330.931 419.296C331.685 419.296 332.266 419.127 332.673 418.789C333.089 418.451 333.297 418 333.297 417.437C333.297 416.813 333.063 416.34 332.595 416.02C332.136 415.699 331.356 415.539 330.255 415.539H328.318L328.786 410.976H333.765V411.808H329.605L329.293 414.707H330.463Z" fill="#262A40"/>
<path d="M428.193 420.154C427.491 420.154 426.863 419.967 426.308 419.595C425.762 419.222 425.333 418.689 425.021 417.996C424.718 417.294 424.566 416.47 424.566 415.526C424.566 414.581 424.718 413.762 425.021 413.069C425.333 412.367 425.762 411.829 426.308 411.457C426.863 411.084 427.491 410.898 428.193 410.898C428.895 410.898 429.519 411.084 430.065 411.457C430.62 411.829 431.053 412.367 431.365 413.069C431.677 413.762 431.833 414.581 431.833 415.526C431.833 416.47 431.677 417.294 431.365 417.996C431.053 418.689 430.62 419.222 430.065 419.595C429.519 419.967 428.895 420.154 428.193 420.154ZM428.193 419.296C428.722 419.296 429.185 419.148 429.584 418.854C429.991 418.559 430.308 418.13 430.533 417.567C430.758 417.003 430.871 416.323 430.871 415.526C430.871 414.728 430.758 414.048 430.533 413.485C430.308 412.921 429.991 412.492 429.584 412.198C429.185 411.903 428.722 411.756 428.193 411.756C427.664 411.756 427.196 411.903 426.789 412.198C426.39 412.492 426.078 412.921 425.853 413.485C425.628 414.048 425.515 414.728 425.515 415.526C425.515 416.323 425.628 417.003 425.853 417.567C426.078 418.13 426.39 418.559 426.789 418.854C427.196 419.148 427.664 419.296 428.193 419.296ZM439.494 410.976V411.639L435.685 420.076H434.671L438.415 411.808H433.735V413.511H432.812V410.976H439.494Z" fill="#262A40"/>
<path d="M533.296 420.154C532.594 420.154 531.966 419.967 531.411 419.595C530.865 419.222 530.436 418.689 530.124 417.996C529.821 417.294 529.669 416.47 529.669 415.526C529.669 414.581 529.821 413.762 530.124 413.069C530.436 412.367 530.865 411.829 531.411 411.457C531.966 411.084 532.594 410.898 533.296 410.898C533.998 410.898 534.622 411.084 535.168 411.457C535.723 411.829 536.156 412.367 536.468 413.069C536.78 413.762 536.936 414.581 536.936 415.526C536.936 416.47 536.78 417.294 536.468 417.996C536.156 418.689 535.723 419.222 535.168 419.595C534.622 419.967 533.998 420.154 533.296 420.154ZM533.296 419.296C533.825 419.296 534.288 419.148 534.687 418.854C535.094 418.559 535.411 418.13 535.636 417.567C535.861 417.003 535.974 416.323 535.974 415.526C535.974 414.728 535.861 414.048 535.636 413.485C535.411 412.921 535.094 412.492 534.687 412.198C534.288 411.903 533.825 411.756 533.296 411.756C532.767 411.756 532.299 411.903 531.892 412.198C531.493 412.492 531.181 412.921 530.956 413.485C530.731 414.048 530.618 414.728 530.618 415.526C530.618 416.323 530.731 417.003 530.956 417.567C531.181 418.13 531.493 418.559 531.892 418.854C532.299 419.148 532.767 419.296 533.296 419.296ZM541.111 410.898C542.315 410.898 543.238 411.296 543.88 412.094C544.521 412.882 544.842 414 544.842 415.448C544.842 416.462 544.668 417.32 544.322 418.022C543.975 418.724 543.49 419.257 542.866 419.621C542.242 419.976 541.514 420.154 540.682 420.154C539.78 420.154 539.061 419.989 538.524 419.66L538.901 418.906C539.334 419.192 539.923 419.335 540.669 419.335C541.674 419.335 542.463 419.018 543.035 418.386C543.607 417.744 543.893 416.817 543.893 415.604C543.893 415.378 543.88 415.131 543.854 414.863C543.628 415.357 543.269 415.742 542.775 416.02C542.281 416.288 541.713 416.423 541.072 416.423C540.474 416.423 539.941 416.31 539.473 416.085C539.013 415.859 538.654 415.543 538.394 415.136C538.134 414.72 538.004 414.239 538.004 413.693C538.004 413.138 538.138 412.648 538.407 412.224C538.675 411.799 539.044 411.474 539.512 411.249C539.988 411.015 540.521 410.898 541.111 410.898ZM541.215 415.63C541.674 415.63 542.077 415.543 542.424 415.37C542.779 415.196 543.056 414.958 543.256 414.655C543.455 414.351 543.555 414.013 543.555 413.641C543.555 413.294 543.459 412.973 543.269 412.679C543.087 412.384 542.814 412.146 542.45 411.964C542.086 411.782 541.652 411.691 541.15 411.691C540.491 411.691 539.954 411.873 539.538 412.237C539.13 412.592 538.927 413.069 538.927 413.667C538.927 414.265 539.13 414.741 539.538 415.097C539.954 415.452 540.513 415.63 541.215 415.63Z" fill="#262A40"/>
<path d="M637.293 410.976V420.076H636.357V411.808H634.212V410.976H637.293ZM643.096 420.154C642.394 420.154 641.765 419.967 641.211 419.595C640.665 419.222 640.236 418.689 639.924 417.996C639.62 417.294 639.469 416.47 639.469 415.526C639.469 414.581 639.62 413.762 639.924 413.069C640.236 412.367 640.665 411.829 641.211 411.457C641.765 411.084 642.394 410.898 643.096 410.898C643.798 410.898 644.422 411.084 644.968 411.457C645.522 411.829 645.956 412.367 646.268 413.069C646.58 413.762 646.736 414.581 646.736 415.526C646.736 416.47 646.58 417.294 646.268 417.996C645.956 418.689 645.522 419.222 644.968 419.595C644.422 419.967 643.798 420.154 643.096 420.154ZM643.096 419.296C643.624 419.296 644.088 419.148 644.487 418.854C644.894 418.559 645.21 418.13 645.436 417.567C645.661 417.003 645.774 416.323 645.774 415.526C645.774 414.728 645.661 414.048 645.436 413.485C645.21 412.921 644.894 412.492 644.487 412.198C644.088 411.903 643.624 411.756 643.096 411.756C642.567 411.756 642.099 411.903 641.692 412.198C641.293 412.492 640.981 412.921 640.756 413.485C640.53 414.048 640.418 414.728 640.418 415.526C640.418 416.323 640.53 417.003 640.756 417.567C640.981 418.13 641.293 418.559 641.692 418.854C642.099 419.148 642.567 419.296 643.096 419.296Z" fill="#262A40"/>
<path d="M742.937 410.911V420.011H742.001V411.743H739.856V410.911H742.937ZM747.634 410.911V420.011H746.698V411.743H744.553V410.911H747.634Z" fill="#262A40"/>
<path d="M848.148 410.911V420.011H847.212V411.743H845.067V410.911H848.148ZM856.537 419.179V420.011H850.154V419.348L853.937 415.643C854.414 415.175 854.735 414.772 854.899 414.434C855.073 414.088 855.159 413.741 855.159 413.394C855.159 412.857 854.973 412.441 854.6 412.146C854.236 411.843 853.712 411.691 853.027 411.691C851.961 411.691 851.134 412.029 850.544 412.705L849.881 412.133C850.237 411.717 850.687 411.397 851.233 411.171C851.788 410.946 852.412 410.833 853.105 410.833C854.033 410.833 854.765 411.054 855.302 411.496C855.848 411.93 856.121 412.528 856.121 413.29C856.121 413.758 856.017 414.209 855.809 414.642C855.601 415.076 855.207 415.574 854.626 416.137L851.532 419.179H856.537Z" fill="#262A40"/>
<path d="M233.292 144.827H219.026V179.255H233.292V144.827Z" fill="white"/>
<path d="M229.726 155.421H222.593V166.014H229.726V155.421Z" fill="#FF9781"/>
<path d="M228.835 156.745H223.485V164.69H228.835V156.745Z" stroke="#FF9781"/>
<path d="M647.008 142.179H632.742V176.607H647.008V142.179Z" fill="white"/>
<path d="M643.442 152.772H636.309V163.366H643.442V152.772Z" fill="#FF9781"/>
<path d="M642.55 154.097H637.201V162.042H642.55V154.097Z" stroke="#FF9781"/>
<path d="M334.938 269.298H320.671V303.727H334.938V269.298Z" fill="white"/>
<path d="M324.739 289.985V280.392H330.872V289.985H324.739Z" fill="#FF9781" stroke="#FF9781"/>
<path d="M330.481 281.216H325.131V289.161H330.481V281.216Z" stroke="#FF9781"/>
<path d="M440.151 158.069H425.885V184.552H440.151V158.069Z" fill="white"/>
<path d="M436.584 168.662H429.451V179.255H436.584V168.662Z" fill="#FF9781"/>
<path d="M435.693 169.987H430.344V177.932H435.693V169.987Z" stroke="#FF9781"/>
<path d="M545.363 226.925H531.097V250.76H545.363V226.925Z" fill="white"/>
<path d="M541.796 240.167H534.663V250.76H541.796V240.167Z" fill="#FF9781"/>
<path d="M540.905 241.491H535.555V249.436H540.905V241.491Z" stroke="#FF9781"/>
<path d="M752.221 160.717H737.955V187.201H752.221V160.717Z" fill="white"/>
<path d="M748.654 171.311H741.521V181.904H748.654V171.311Z" fill="#FF9781"/>
<path d="M747.763 172.635H742.413V180.58H747.763V172.635Z" stroke="#FF9781"/>
<path d="M855.65 87.4071H841.384V121.835H855.65V87.4071Z" fill="white"/>
<path d="M852.084 98.0004H844.951V108.594H852.084V98.0004Z" fill="#FF9781"/>
<path d="M851.193 99.3247H845.843V107.27H851.193V99.3247Z" stroke="#FF9781"/>
</svg>
